%TF.GenerationSoftware,KiCad,Pcbnew,(5.1.12)-1*%
%TF.CreationDate,2022-08-23T18:30:33+03:00*%
%TF.ProjectId,pt100_Temp_comp,70743130-305f-4546-956d-705f636f6d70,rev?*%
%TF.SameCoordinates,Original*%
%TF.FileFunction,Copper,L1,Top*%
%TF.FilePolarity,Positive*%
%FSLAX46Y46*%
G04 Gerber Fmt 4.6, Leading zero omitted, Abs format (unit mm)*
G04 Created by KiCad (PCBNEW (5.1.12)-1) date 2022-08-23 18:30:33*
%MOMM*%
%LPD*%
G01*
G04 APERTURE LIST*
%TA.AperFunction,ComponentPad*%
%ADD10R,3.960000X1.980000*%
%TD*%
%TA.AperFunction,ComponentPad*%
%ADD11O,3.960000X1.980000*%
%TD*%
%TA.AperFunction,ComponentPad*%
%ADD12R,1.700000X1.700000*%
%TD*%
%TA.AperFunction,ComponentPad*%
%ADD13O,1.700000X1.700000*%
%TD*%
%TA.AperFunction,SMDPad,CuDef*%
%ADD14R,0.800000X0.900000*%
%TD*%
%TA.AperFunction,SMDPad,CuDef*%
%ADD15R,0.900000X0.800000*%
%TD*%
%TA.AperFunction,ViaPad*%
%ADD16C,1.000000*%
%TD*%
%TA.AperFunction,Conductor*%
%ADD17C,0.300000*%
%TD*%
%TA.AperFunction,Conductor*%
%ADD18C,0.250000*%
%TD*%
%TA.AperFunction,Conductor*%
%ADD19C,0.100000*%
%TD*%
G04 APERTURE END LIST*
%TO.P,U1,1*%
%TO.N,Net-(R11-Pad2)*%
%TA.AperFunction,SMDPad,CuDef*%
G36*
G01*
X94250000Y-40170000D02*
X94250000Y-39870000D01*
G75*
G02*
X94400000Y-39720000I150000J0D01*
G01*
X96000000Y-39720000D01*
G75*
G02*
X96150000Y-39870000I0J-150000D01*
G01*
X96150000Y-40170000D01*
G75*
G02*
X96000000Y-40320000I-150000J0D01*
G01*
X94400000Y-40320000D01*
G75*
G02*
X94250000Y-40170000I0J150000D01*
G01*
G37*
%TD.AperFunction*%
%TO.P,U1,2*%
%TO.N,Net-(R11-Pad1)*%
%TA.AperFunction,SMDPad,CuDef*%
G36*
G01*
X94250000Y-41440000D02*
X94250000Y-41140000D01*
G75*
G02*
X94400000Y-40990000I150000J0D01*
G01*
X96000000Y-40990000D01*
G75*
G02*
X96150000Y-41140000I0J-150000D01*
G01*
X96150000Y-41440000D01*
G75*
G02*
X96000000Y-41590000I-150000J0D01*
G01*
X94400000Y-41590000D01*
G75*
G02*
X94250000Y-41440000I0J150000D01*
G01*
G37*
%TD.AperFunction*%
%TO.P,U1,3*%
%TO.N,Net-(R10-Pad1)*%
%TA.AperFunction,SMDPad,CuDef*%
G36*
G01*
X94250000Y-42710000D02*
X94250000Y-42410000D01*
G75*
G02*
X94400000Y-42260000I150000J0D01*
G01*
X96000000Y-42260000D01*
G75*
G02*
X96150000Y-42410000I0J-150000D01*
G01*
X96150000Y-42710000D01*
G75*
G02*
X96000000Y-42860000I-150000J0D01*
G01*
X94400000Y-42860000D01*
G75*
G02*
X94250000Y-42710000I0J150000D01*
G01*
G37*
%TD.AperFunction*%
%TO.P,U1,4*%
%TO.N,GND*%
%TA.AperFunction,SMDPad,CuDef*%
G36*
G01*
X94250000Y-43980000D02*
X94250000Y-43680000D01*
G75*
G02*
X94400000Y-43530000I150000J0D01*
G01*
X96000000Y-43530000D01*
G75*
G02*
X96150000Y-43680000I0J-150000D01*
G01*
X96150000Y-43980000D01*
G75*
G02*
X96000000Y-44130000I-150000J0D01*
G01*
X94400000Y-44130000D01*
G75*
G02*
X94250000Y-43980000I0J150000D01*
G01*
G37*
%TD.AperFunction*%
%TO.P,U1,5*%
%TO.N,Current_Source*%
%TA.AperFunction,SMDPad,CuDef*%
G36*
G01*
X101250000Y-43980000D02*
X101250000Y-43680000D01*
G75*
G02*
X101400000Y-43530000I150000J0D01*
G01*
X103000000Y-43530000D01*
G75*
G02*
X103150000Y-43680000I0J-150000D01*
G01*
X103150000Y-43980000D01*
G75*
G02*
X103000000Y-44130000I-150000J0D01*
G01*
X101400000Y-44130000D01*
G75*
G02*
X101250000Y-43980000I0J150000D01*
G01*
G37*
%TD.AperFunction*%
%TO.P,U1,6*%
%TO.N,Net-(R10-Pad2)*%
%TA.AperFunction,SMDPad,CuDef*%
G36*
G01*
X101250000Y-42710000D02*
X101250000Y-42410000D01*
G75*
G02*
X101400000Y-42260000I150000J0D01*
G01*
X103000000Y-42260000D01*
G75*
G02*
X103150000Y-42410000I0J-150000D01*
G01*
X103150000Y-42710000D01*
G75*
G02*
X103000000Y-42860000I-150000J0D01*
G01*
X101400000Y-42860000D01*
G75*
G02*
X101250000Y-42710000I0J150000D01*
G01*
G37*
%TD.AperFunction*%
%TO.P,U1,7*%
%TA.AperFunction,SMDPad,CuDef*%
G36*
G01*
X101250000Y-41440000D02*
X101250000Y-41140000D01*
G75*
G02*
X101400000Y-40990000I150000J0D01*
G01*
X103000000Y-40990000D01*
G75*
G02*
X103150000Y-41140000I0J-150000D01*
G01*
X103150000Y-41440000D01*
G75*
G02*
X103000000Y-41590000I-150000J0D01*
G01*
X101400000Y-41590000D01*
G75*
G02*
X101250000Y-41440000I0J150000D01*
G01*
G37*
%TD.AperFunction*%
%TO.P,U1,8*%
%TO.N,5V*%
%TA.AperFunction,SMDPad,CuDef*%
G36*
G01*
X101250000Y-40170000D02*
X101250000Y-39870000D01*
G75*
G02*
X101400000Y-39720000I150000J0D01*
G01*
X103000000Y-39720000D01*
G75*
G02*
X103150000Y-39870000I0J-150000D01*
G01*
X103150000Y-40170000D01*
G75*
G02*
X103000000Y-40320000I-150000J0D01*
G01*
X101400000Y-40320000D01*
G75*
G02*
X101250000Y-40170000I0J150000D01*
G01*
G37*
%TD.AperFunction*%
%TD*%
%TO.P,C1,2*%
%TO.N,GND*%
%TA.AperFunction,SMDPad,CuDef*%
G36*
G01*
X101200000Y-36025000D02*
X101200000Y-36975000D01*
G75*
G02*
X100950000Y-37225000I-250000J0D01*
G01*
X100450000Y-37225000D01*
G75*
G02*
X100200000Y-36975000I0J250000D01*
G01*
X100200000Y-36025000D01*
G75*
G02*
X100450000Y-35775000I250000J0D01*
G01*
X100950000Y-35775000D01*
G75*
G02*
X101200000Y-36025000I0J-250000D01*
G01*
G37*
%TD.AperFunction*%
%TO.P,C1,1*%
%TO.N,5V*%
%TA.AperFunction,SMDPad,CuDef*%
G36*
G01*
X103100000Y-36025000D02*
X103100000Y-36975000D01*
G75*
G02*
X102850000Y-37225000I-250000J0D01*
G01*
X102350000Y-37225000D01*
G75*
G02*
X102100000Y-36975000I0J250000D01*
G01*
X102100000Y-36025000D01*
G75*
G02*
X102350000Y-35775000I250000J0D01*
G01*
X102850000Y-35775000D01*
G75*
G02*
X103100000Y-36025000I0J-250000D01*
G01*
G37*
%TD.AperFunction*%
%TD*%
%TO.P,C2,2*%
%TO.N,GND*%
%TA.AperFunction,SMDPad,CuDef*%
G36*
G01*
X110975000Y-47600000D02*
X110975000Y-46650000D01*
G75*
G02*
X111225000Y-46400000I250000J0D01*
G01*
X111725000Y-46400000D01*
G75*
G02*
X111975000Y-46650000I0J-250000D01*
G01*
X111975000Y-47600000D01*
G75*
G02*
X111725000Y-47850000I-250000J0D01*
G01*
X111225000Y-47850000D01*
G75*
G02*
X110975000Y-47600000I0J250000D01*
G01*
G37*
%TD.AperFunction*%
%TO.P,C2,1*%
%TO.N,5V*%
%TA.AperFunction,SMDPad,CuDef*%
G36*
G01*
X109075000Y-47600000D02*
X109075000Y-46650000D01*
G75*
G02*
X109325000Y-46400000I250000J0D01*
G01*
X109825000Y-46400000D01*
G75*
G02*
X110075000Y-46650000I0J-250000D01*
G01*
X110075000Y-47600000D01*
G75*
G02*
X109825000Y-47850000I-250000J0D01*
G01*
X109325000Y-47850000D01*
G75*
G02*
X109075000Y-47600000I0J250000D01*
G01*
G37*
%TD.AperFunction*%
%TD*%
%TO.P,C3,1*%
%TO.N,5V*%
%TA.AperFunction,SMDPad,CuDef*%
G36*
G01*
X103100000Y-33350000D02*
X103100000Y-34300000D01*
G75*
G02*
X102850000Y-34550000I-250000J0D01*
G01*
X102350000Y-34550000D01*
G75*
G02*
X102100000Y-34300000I0J250000D01*
G01*
X102100000Y-33350000D01*
G75*
G02*
X102350000Y-33100000I250000J0D01*
G01*
X102850000Y-33100000D01*
G75*
G02*
X103100000Y-33350000I0J-250000D01*
G01*
G37*
%TD.AperFunction*%
%TO.P,C3,2*%
%TO.N,GND*%
%TA.AperFunction,SMDPad,CuDef*%
G36*
G01*
X101200000Y-33350000D02*
X101200000Y-34300000D01*
G75*
G02*
X100950000Y-34550000I-250000J0D01*
G01*
X100450000Y-34550000D01*
G75*
G02*
X100200000Y-34300000I0J250000D01*
G01*
X100200000Y-33350000D01*
G75*
G02*
X100450000Y-33100000I250000J0D01*
G01*
X100950000Y-33100000D01*
G75*
G02*
X101200000Y-33350000I0J-250000D01*
G01*
G37*
%TD.AperFunction*%
%TD*%
%TO.P,C4,1*%
%TO.N,5V*%
%TA.AperFunction,SMDPad,CuDef*%
G36*
G01*
X109075000Y-45100000D02*
X109075000Y-44150000D01*
G75*
G02*
X109325000Y-43900000I250000J0D01*
G01*
X109825000Y-43900000D01*
G75*
G02*
X110075000Y-44150000I0J-250000D01*
G01*
X110075000Y-45100000D01*
G75*
G02*
X109825000Y-45350000I-250000J0D01*
G01*
X109325000Y-45350000D01*
G75*
G02*
X109075000Y-45100000I0J250000D01*
G01*
G37*
%TD.AperFunction*%
%TO.P,C4,2*%
%TO.N,GND*%
%TA.AperFunction,SMDPad,CuDef*%
G36*
G01*
X110975000Y-45100000D02*
X110975000Y-44150000D01*
G75*
G02*
X111225000Y-43900000I250000J0D01*
G01*
X111725000Y-43900000D01*
G75*
G02*
X111975000Y-44150000I0J-250000D01*
G01*
X111975000Y-45100000D01*
G75*
G02*
X111725000Y-45350000I-250000J0D01*
G01*
X111225000Y-45350000D01*
G75*
G02*
X110975000Y-45100000I0J250000D01*
G01*
G37*
%TD.AperFunction*%
%TD*%
%TO.P,C5,2*%
%TO.N,Net-(C5-Pad2)*%
%TA.AperFunction,SMDPad,CuDef*%
G36*
G01*
X98675000Y-53700000D02*
X97725000Y-53700000D01*
G75*
G02*
X97475000Y-53450000I0J250000D01*
G01*
X97475000Y-52950000D01*
G75*
G02*
X97725000Y-52700000I250000J0D01*
G01*
X98675000Y-52700000D01*
G75*
G02*
X98925000Y-52950000I0J-250000D01*
G01*
X98925000Y-53450000D01*
G75*
G02*
X98675000Y-53700000I-250000J0D01*
G01*
G37*
%TD.AperFunction*%
%TO.P,C5,1*%
%TO.N,Current_Source*%
%TA.AperFunction,SMDPad,CuDef*%
G36*
G01*
X98675000Y-55600000D02*
X97725000Y-55600000D01*
G75*
G02*
X97475000Y-55350000I0J250000D01*
G01*
X97475000Y-54850000D01*
G75*
G02*
X97725000Y-54600000I250000J0D01*
G01*
X98675000Y-54600000D01*
G75*
G02*
X98925000Y-54850000I0J-250000D01*
G01*
X98925000Y-55350000D01*
G75*
G02*
X98675000Y-55600000I-250000J0D01*
G01*
G37*
%TD.AperFunction*%
%TD*%
%TO.P,C6,1*%
%TO.N,Net-(C5-Pad2)*%
%TA.AperFunction,SMDPad,CuDef*%
G36*
G01*
X90675000Y-51875000D02*
X91625000Y-51875000D01*
G75*
G02*
X91875000Y-52125000I0J-250000D01*
G01*
X91875000Y-52625000D01*
G75*
G02*
X91625000Y-52875000I-250000J0D01*
G01*
X90675000Y-52875000D01*
G75*
G02*
X90425000Y-52625000I0J250000D01*
G01*
X90425000Y-52125000D01*
G75*
G02*
X90675000Y-51875000I250000J0D01*
G01*
G37*
%TD.AperFunction*%
%TO.P,C6,2*%
%TO.N,Net-(C6-Pad2)*%
%TA.AperFunction,SMDPad,CuDef*%
G36*
G01*
X90675000Y-53775000D02*
X91625000Y-53775000D01*
G75*
G02*
X91875000Y-54025000I0J-250000D01*
G01*
X91875000Y-54525000D01*
G75*
G02*
X91625000Y-54775000I-250000J0D01*
G01*
X90675000Y-54775000D01*
G75*
G02*
X90425000Y-54525000I0J250000D01*
G01*
X90425000Y-54025000D01*
G75*
G02*
X90675000Y-53775000I250000J0D01*
G01*
G37*
%TD.AperFunction*%
%TD*%
D10*
%TO.P,J1,1*%
%TO.N,Net-(C5-Pad2)*%
X82350000Y-48600000D03*
D11*
%TO.P,J1,2*%
%TO.N,Net-(C6-Pad2)*%
X82350000Y-53600000D03*
%TO.P,J1,3*%
%TO.N,GND*%
X82350000Y-58600000D03*
%TD*%
D12*
%TO.P,J2,1*%
%TO.N,5V*%
X118900000Y-35325000D03*
D13*
%TO.P,J2,2*%
%TO.N,GND*%
X116360000Y-35325000D03*
%TO.P,J2,3*%
%TO.N,V_REF*%
X113820000Y-35325000D03*
%TO.P,J2,4*%
%TO.N,ADC_REF*%
X111280000Y-35325000D03*
%TO.P,J2,5*%
%TO.N,ADC_VAL*%
X108740000Y-35325000D03*
%TD*%
D14*
%TO.P,Q1,1*%
%TO.N,Net-(Q1-Pad1)*%
X87075000Y-33850000D03*
%TO.P,Q1,2*%
%TO.N,5V*%
X88975000Y-33850000D03*
%TO.P,Q1,3*%
%TO.N,Net-(Q1-Pad3)*%
X88025000Y-31850000D03*
%TD*%
%TO.P,Q2,1*%
%TO.N,Net-(Q1-Pad3)*%
X88975000Y-35575000D03*
%TO.P,Q2,2*%
%TO.N,Net-(Q1-Pad1)*%
X87075000Y-35575000D03*
%TO.P,Q2,3*%
%TO.N,V_REF*%
X88025000Y-37575000D03*
%TD*%
%TO.P,R1,1*%
%TO.N,Current_Source*%
%TA.AperFunction,SMDPad,CuDef*%
G36*
G01*
X100850001Y-55550000D02*
X99949999Y-55550000D01*
G75*
G02*
X99700000Y-55300001I0J249999D01*
G01*
X99700000Y-54774999D01*
G75*
G02*
X99949999Y-54525000I249999J0D01*
G01*
X100850001Y-54525000D01*
G75*
G02*
X101100000Y-54774999I0J-249999D01*
G01*
X101100000Y-55300001D01*
G75*
G02*
X100850001Y-55550000I-249999J0D01*
G01*
G37*
%TD.AperFunction*%
%TO.P,R1,2*%
%TO.N,Net-(C5-Pad2)*%
%TA.AperFunction,SMDPad,CuDef*%
G36*
G01*
X100850001Y-53725000D02*
X99949999Y-53725000D01*
G75*
G02*
X99700000Y-53475001I0J249999D01*
G01*
X99700000Y-52949999D01*
G75*
G02*
X99949999Y-52700000I249999J0D01*
G01*
X100850001Y-52700000D01*
G75*
G02*
X101100000Y-52949999I0J-249999D01*
G01*
X101100000Y-53475001D01*
G75*
G02*
X100850001Y-53725000I-249999J0D01*
G01*
G37*
%TD.AperFunction*%
%TD*%
%TO.P,R2,2*%
%TO.N,Current_Source*%
%TA.AperFunction,SMDPad,CuDef*%
G36*
G01*
X102124999Y-54525000D02*
X103025001Y-54525000D01*
G75*
G02*
X103275000Y-54774999I0J-249999D01*
G01*
X103275000Y-55300001D01*
G75*
G02*
X103025001Y-55550000I-249999J0D01*
G01*
X102124999Y-55550000D01*
G75*
G02*
X101875000Y-55300001I0J249999D01*
G01*
X101875000Y-54774999D01*
G75*
G02*
X102124999Y-54525000I249999J0D01*
G01*
G37*
%TD.AperFunction*%
%TO.P,R2,1*%
%TO.N,Net-(R2-Pad1)*%
%TA.AperFunction,SMDPad,CuDef*%
G36*
G01*
X102124999Y-52700000D02*
X103025001Y-52700000D01*
G75*
G02*
X103275000Y-52949999I0J-249999D01*
G01*
X103275000Y-53475001D01*
G75*
G02*
X103025001Y-53725000I-249999J0D01*
G01*
X102124999Y-53725000D01*
G75*
G02*
X101875000Y-53475001I0J249999D01*
G01*
X101875000Y-52949999D01*
G75*
G02*
X102124999Y-52700000I249999J0D01*
G01*
G37*
%TD.AperFunction*%
%TD*%
%TO.P,R3,1*%
%TO.N,Net-(C5-Pad2)*%
%TA.AperFunction,SMDPad,CuDef*%
G36*
G01*
X106000001Y-51837500D02*
X105099999Y-51837500D01*
G75*
G02*
X104850000Y-51587501I0J249999D01*
G01*
X104850000Y-51062499D01*
G75*
G02*
X105099999Y-50812500I249999J0D01*
G01*
X106000001Y-50812500D01*
G75*
G02*
X106250000Y-51062499I0J-249999D01*
G01*
X106250000Y-51587501D01*
G75*
G02*
X106000001Y-51837500I-249999J0D01*
G01*
G37*
%TD.AperFunction*%
%TO.P,R3,2*%
%TO.N,Net-(R3-Pad2)*%
%TA.AperFunction,SMDPad,CuDef*%
G36*
G01*
X106000001Y-50012500D02*
X105099999Y-50012500D01*
G75*
G02*
X104850000Y-49762501I0J249999D01*
G01*
X104850000Y-49237499D01*
G75*
G02*
X105099999Y-48987500I249999J0D01*
G01*
X106000001Y-48987500D01*
G75*
G02*
X106250000Y-49237499I0J-249999D01*
G01*
X106250000Y-49762501D01*
G75*
G02*
X106000001Y-50012500I-249999J0D01*
G01*
G37*
%TD.AperFunction*%
%TD*%
%TO.P,R4,1*%
%TO.N,Net-(C5-Pad2)*%
%TA.AperFunction,SMDPad,CuDef*%
G36*
G01*
X107237500Y-61725001D02*
X107237500Y-60824999D01*
G75*
G02*
X107487499Y-60575000I249999J0D01*
G01*
X108012501Y-60575000D01*
G75*
G02*
X108262500Y-60824999I0J-249999D01*
G01*
X108262500Y-61725001D01*
G75*
G02*
X108012501Y-61975000I-249999J0D01*
G01*
X107487499Y-61975000D01*
G75*
G02*
X107237500Y-61725001I0J249999D01*
G01*
G37*
%TD.AperFunction*%
%TO.P,R4,2*%
%TO.N,Net-(R4-Pad2)*%
%TA.AperFunction,SMDPad,CuDef*%
G36*
G01*
X109062500Y-61725001D02*
X109062500Y-60824999D01*
G75*
G02*
X109312499Y-60575000I249999J0D01*
G01*
X109837501Y-60575000D01*
G75*
G02*
X110087500Y-60824999I0J-249999D01*
G01*
X110087500Y-61725001D01*
G75*
G02*
X109837501Y-61975000I-249999J0D01*
G01*
X109312499Y-61975000D01*
G75*
G02*
X109062500Y-61725001I0J249999D01*
G01*
G37*
%TD.AperFunction*%
%TD*%
%TO.P,R5,2*%
%TO.N,Net-(R2-Pad1)*%
%TA.AperFunction,SMDPad,CuDef*%
G36*
G01*
X105250001Y-53712500D02*
X104349999Y-53712500D01*
G75*
G02*
X104100000Y-53462501I0J249999D01*
G01*
X104100000Y-52937499D01*
G75*
G02*
X104349999Y-52687500I249999J0D01*
G01*
X105250001Y-52687500D01*
G75*
G02*
X105500000Y-52937499I0J-249999D01*
G01*
X105500000Y-53462501D01*
G75*
G02*
X105250001Y-53712500I-249999J0D01*
G01*
G37*
%TD.AperFunction*%
%TO.P,R5,1*%
%TO.N,GND*%
%TA.AperFunction,SMDPad,CuDef*%
G36*
G01*
X105250001Y-55537500D02*
X104349999Y-55537500D01*
G75*
G02*
X104100000Y-55287501I0J249999D01*
G01*
X104100000Y-54762499D01*
G75*
G02*
X104349999Y-54512500I249999J0D01*
G01*
X105250001Y-54512500D01*
G75*
G02*
X105500000Y-54762499I0J-249999D01*
G01*
X105500000Y-55287501D01*
G75*
G02*
X105250001Y-55537500I-249999J0D01*
G01*
G37*
%TD.AperFunction*%
%TD*%
%TO.P,R6,1*%
%TO.N,Net-(R6-Pad1)*%
%TA.AperFunction,SMDPad,CuDef*%
G36*
G01*
X100312500Y-47250001D02*
X100312500Y-46349999D01*
G75*
G02*
X100562499Y-46100000I249999J0D01*
G01*
X101087501Y-46100000D01*
G75*
G02*
X101337500Y-46349999I0J-249999D01*
G01*
X101337500Y-47250001D01*
G75*
G02*
X101087501Y-47500000I-249999J0D01*
G01*
X100562499Y-47500000D01*
G75*
G02*
X100312500Y-47250001I0J249999D01*
G01*
G37*
%TD.AperFunction*%
%TO.P,R6,2*%
%TO.N,Current_Source*%
%TA.AperFunction,SMDPad,CuDef*%
G36*
G01*
X102137500Y-47250001D02*
X102137500Y-46349999D01*
G75*
G02*
X102387499Y-46100000I249999J0D01*
G01*
X102912501Y-46100000D01*
G75*
G02*
X103162500Y-46349999I0J-249999D01*
G01*
X103162500Y-47250001D01*
G75*
G02*
X102912501Y-47500000I-249999J0D01*
G01*
X102387499Y-47500000D01*
G75*
G02*
X102137500Y-47250001I0J249999D01*
G01*
G37*
%TD.AperFunction*%
%TD*%
%TO.P,R7,2*%
%TO.N,Net-(R6-Pad1)*%
%TA.AperFunction,SMDPad,CuDef*%
G36*
G01*
X102150000Y-49500001D02*
X102150000Y-48599999D01*
G75*
G02*
X102399999Y-48350000I249999J0D01*
G01*
X102925001Y-48350000D01*
G75*
G02*
X103175000Y-48599999I0J-249999D01*
G01*
X103175000Y-49500001D01*
G75*
G02*
X102925001Y-49750000I-249999J0D01*
G01*
X102399999Y-49750000D01*
G75*
G02*
X102150000Y-49500001I0J249999D01*
G01*
G37*
%TD.AperFunction*%
%TO.P,R7,1*%
%TO.N,Net-(R11-Pad2)*%
%TA.AperFunction,SMDPad,CuDef*%
G36*
G01*
X100325000Y-49500001D02*
X100325000Y-48599999D01*
G75*
G02*
X100574999Y-48350000I249999J0D01*
G01*
X101100001Y-48350000D01*
G75*
G02*
X101350000Y-48599999I0J-249999D01*
G01*
X101350000Y-49500001D01*
G75*
G02*
X101100001Y-49750000I-249999J0D01*
G01*
X100574999Y-49750000D01*
G75*
G02*
X100325000Y-49500001I0J249999D01*
G01*
G37*
%TD.AperFunction*%
%TD*%
%TO.P,R8,1*%
%TO.N,Net-(R8-Pad1)*%
%TA.AperFunction,SMDPad,CuDef*%
G36*
G01*
X108075000Y-46649999D02*
X108075000Y-47550001D01*
G75*
G02*
X107825001Y-47800000I-249999J0D01*
G01*
X107299999Y-47800000D01*
G75*
G02*
X107050000Y-47550001I0J249999D01*
G01*
X107050000Y-46649999D01*
G75*
G02*
X107299999Y-46400000I249999J0D01*
G01*
X107825001Y-46400000D01*
G75*
G02*
X108075000Y-46649999I0J-249999D01*
G01*
G37*
%TD.AperFunction*%
%TO.P,R8,2*%
%TO.N,Net-(R3-Pad2)*%
%TA.AperFunction,SMDPad,CuDef*%
G36*
G01*
X106250000Y-46649999D02*
X106250000Y-47550001D01*
G75*
G02*
X106000001Y-47800000I-249999J0D01*
G01*
X105474999Y-47800000D01*
G75*
G02*
X105225000Y-47550001I0J249999D01*
G01*
X105225000Y-46649999D01*
G75*
G02*
X105474999Y-46400000I249999J0D01*
G01*
X106000001Y-46400000D01*
G75*
G02*
X106250000Y-46649999I0J-249999D01*
G01*
G37*
%TD.AperFunction*%
%TD*%
%TO.P,R9,2*%
%TO.N,Net-(R4-Pad2)*%
%TA.AperFunction,SMDPad,CuDef*%
G36*
G01*
X109062500Y-59525001D02*
X109062500Y-58624999D01*
G75*
G02*
X109312499Y-58375000I249999J0D01*
G01*
X109837501Y-58375000D01*
G75*
G02*
X110087500Y-58624999I0J-249999D01*
G01*
X110087500Y-59525001D01*
G75*
G02*
X109837501Y-59775000I-249999J0D01*
G01*
X109312499Y-59775000D01*
G75*
G02*
X109062500Y-59525001I0J249999D01*
G01*
G37*
%TD.AperFunction*%
%TO.P,R9,1*%
%TO.N,Net-(R9-Pad1)*%
%TA.AperFunction,SMDPad,CuDef*%
G36*
G01*
X107237500Y-59525001D02*
X107237500Y-58624999D01*
G75*
G02*
X107487499Y-58375000I249999J0D01*
G01*
X108012501Y-58375000D01*
G75*
G02*
X108262500Y-58624999I0J-249999D01*
G01*
X108262500Y-59525001D01*
G75*
G02*
X108012501Y-59775000I-249999J0D01*
G01*
X107487499Y-59775000D01*
G75*
G02*
X107237500Y-59525001I0J249999D01*
G01*
G37*
%TD.AperFunction*%
%TD*%
%TO.P,R10,1*%
%TO.N,Net-(R10-Pad1)*%
%TA.AperFunction,SMDPad,CuDef*%
G36*
G01*
X104299999Y-40212500D02*
X105200001Y-40212500D01*
G75*
G02*
X105450000Y-40462499I0J-249999D01*
G01*
X105450000Y-40987501D01*
G75*
G02*
X105200001Y-41237500I-249999J0D01*
G01*
X104299999Y-41237500D01*
G75*
G02*
X104050000Y-40987501I0J249999D01*
G01*
X104050000Y-40462499D01*
G75*
G02*
X104299999Y-40212500I249999J0D01*
G01*
G37*
%TD.AperFunction*%
%TO.P,R10,2*%
%TO.N,Net-(R10-Pad2)*%
%TA.AperFunction,SMDPad,CuDef*%
G36*
G01*
X104299999Y-42037500D02*
X105200001Y-42037500D01*
G75*
G02*
X105450000Y-42287499I0J-249999D01*
G01*
X105450000Y-42812501D01*
G75*
G02*
X105200001Y-43062500I-249999J0D01*
G01*
X104299999Y-43062500D01*
G75*
G02*
X104050000Y-42812501I0J249999D01*
G01*
X104050000Y-42287499D01*
G75*
G02*
X104299999Y-42037500I249999J0D01*
G01*
G37*
%TD.AperFunction*%
%TD*%
%TO.P,R11,2*%
%TO.N,Net-(R11-Pad2)*%
%TA.AperFunction,SMDPad,CuDef*%
G36*
G01*
X95675000Y-36724999D02*
X95675000Y-37625001D01*
G75*
G02*
X95425001Y-37875000I-249999J0D01*
G01*
X94899999Y-37875000D01*
G75*
G02*
X94650000Y-37625001I0J249999D01*
G01*
X94650000Y-36724999D01*
G75*
G02*
X94899999Y-36475000I249999J0D01*
G01*
X95425001Y-36475000D01*
G75*
G02*
X95675000Y-36724999I0J-249999D01*
G01*
G37*
%TD.AperFunction*%
%TO.P,R11,1*%
%TO.N,Net-(R11-Pad1)*%
%TA.AperFunction,SMDPad,CuDef*%
G36*
G01*
X97500000Y-36724999D02*
X97500000Y-37625001D01*
G75*
G02*
X97250001Y-37875000I-249999J0D01*
G01*
X96724999Y-37875000D01*
G75*
G02*
X96475000Y-37625001I0J249999D01*
G01*
X96475000Y-36724999D01*
G75*
G02*
X96724999Y-36475000I249999J0D01*
G01*
X97250001Y-36475000D01*
G75*
G02*
X97500000Y-36724999I0J-249999D01*
G01*
G37*
%TD.AperFunction*%
%TD*%
%TO.P,R12,2*%
%TO.N,Net-(R10-Pad1)*%
%TA.AperFunction,SMDPad,CuDef*%
G36*
G01*
X91974999Y-41637500D02*
X92875001Y-41637500D01*
G75*
G02*
X93125000Y-41887499I0J-249999D01*
G01*
X93125000Y-42412501D01*
G75*
G02*
X92875001Y-42662500I-249999J0D01*
G01*
X91974999Y-42662500D01*
G75*
G02*
X91725000Y-42412501I0J249999D01*
G01*
X91725000Y-41887499D01*
G75*
G02*
X91974999Y-41637500I249999J0D01*
G01*
G37*
%TD.AperFunction*%
%TO.P,R12,1*%
%TO.N,V_REF*%
%TA.AperFunction,SMDPad,CuDef*%
G36*
G01*
X91974999Y-39812500D02*
X92875001Y-39812500D01*
G75*
G02*
X93125000Y-40062499I0J-249999D01*
G01*
X93125000Y-40587501D01*
G75*
G02*
X92875001Y-40837500I-249999J0D01*
G01*
X91974999Y-40837500D01*
G75*
G02*
X91725000Y-40587501I0J249999D01*
G01*
X91725000Y-40062499D01*
G75*
G02*
X91974999Y-39812500I249999J0D01*
G01*
G37*
%TD.AperFunction*%
%TD*%
%TO.P,R13,1*%
%TO.N,GND*%
%TA.AperFunction,SMDPad,CuDef*%
G36*
G01*
X94700000Y-47050001D02*
X94700000Y-46149999D01*
G75*
G02*
X94949999Y-45900000I249999J0D01*
G01*
X95475001Y-45900000D01*
G75*
G02*
X95725000Y-46149999I0J-249999D01*
G01*
X95725000Y-47050001D01*
G75*
G02*
X95475001Y-47300000I-249999J0D01*
G01*
X94949999Y-47300000D01*
G75*
G02*
X94700000Y-47050001I0J249999D01*
G01*
G37*
%TD.AperFunction*%
%TO.P,R13,2*%
%TO.N,Net-(R11-Pad1)*%
%TA.AperFunction,SMDPad,CuDef*%
G36*
G01*
X96525000Y-47050001D02*
X96525000Y-46149999D01*
G75*
G02*
X96774999Y-45900000I249999J0D01*
G01*
X97300001Y-45900000D01*
G75*
G02*
X97550000Y-46149999I0J-249999D01*
G01*
X97550000Y-47050001D01*
G75*
G02*
X97300001Y-47300000I-249999J0D01*
G01*
X96774999Y-47300000D01*
G75*
G02*
X96525000Y-47050001I0J249999D01*
G01*
G37*
%TD.AperFunction*%
%TD*%
%TO.P,R14,1*%
%TO.N,Net-(Q1-Pad3)*%
%TA.AperFunction,SMDPad,CuDef*%
G36*
G01*
X90512500Y-32300001D02*
X90512500Y-31399999D01*
G75*
G02*
X90762499Y-31150000I249999J0D01*
G01*
X91287501Y-31150000D01*
G75*
G02*
X91537500Y-31399999I0J-249999D01*
G01*
X91537500Y-32300001D01*
G75*
G02*
X91287501Y-32550000I-249999J0D01*
G01*
X90762499Y-32550000D01*
G75*
G02*
X90512500Y-32300001I0J249999D01*
G01*
G37*
%TD.AperFunction*%
%TO.P,R14,2*%
%TO.N,GND*%
%TA.AperFunction,SMDPad,CuDef*%
G36*
G01*
X92337500Y-32300001D02*
X92337500Y-31399999D01*
G75*
G02*
X92587499Y-31150000I249999J0D01*
G01*
X93112501Y-31150000D01*
G75*
G02*
X93362500Y-31399999I0J-249999D01*
G01*
X93362500Y-32300001D01*
G75*
G02*
X93112501Y-32550000I-249999J0D01*
G01*
X92587499Y-32550000D01*
G75*
G02*
X92337500Y-32300001I0J249999D01*
G01*
G37*
%TD.AperFunction*%
%TD*%
%TO.P,R15,2*%
%TO.N,Net-(Q1-Pad1)*%
%TA.AperFunction,SMDPad,CuDef*%
G36*
G01*
X84074999Y-33237500D02*
X84975001Y-33237500D01*
G75*
G02*
X85225000Y-33487499I0J-249999D01*
G01*
X85225000Y-34012501D01*
G75*
G02*
X84975001Y-34262500I-249999J0D01*
G01*
X84074999Y-34262500D01*
G75*
G02*
X83825000Y-34012501I0J249999D01*
G01*
X83825000Y-33487499D01*
G75*
G02*
X84074999Y-33237500I249999J0D01*
G01*
G37*
%TD.AperFunction*%
%TO.P,R15,1*%
%TO.N,5V*%
%TA.AperFunction,SMDPad,CuDef*%
G36*
G01*
X84074999Y-31412500D02*
X84975001Y-31412500D01*
G75*
G02*
X85225000Y-31662499I0J-249999D01*
G01*
X85225000Y-32187501D01*
G75*
G02*
X84975001Y-32437500I-249999J0D01*
G01*
X84074999Y-32437500D01*
G75*
G02*
X83825000Y-32187501I0J249999D01*
G01*
X83825000Y-31662499D01*
G75*
G02*
X84074999Y-31412500I249999J0D01*
G01*
G37*
%TD.AperFunction*%
%TD*%
%TO.P,R16,1*%
%TO.N,Net-(R16-Pad1)*%
%TA.AperFunction,SMDPad,CuDef*%
G36*
G01*
X117875001Y-54750000D02*
X116974999Y-54750000D01*
G75*
G02*
X116725000Y-54500001I0J249999D01*
G01*
X116725000Y-53974999D01*
G75*
G02*
X116974999Y-53725000I249999J0D01*
G01*
X117875001Y-53725000D01*
G75*
G02*
X118125000Y-53974999I0J-249999D01*
G01*
X118125000Y-54500001D01*
G75*
G02*
X117875001Y-54750000I-249999J0D01*
G01*
G37*
%TD.AperFunction*%
%TO.P,R16,2*%
%TO.N,GND*%
%TA.AperFunction,SMDPad,CuDef*%
G36*
G01*
X117875001Y-52925000D02*
X116974999Y-52925000D01*
G75*
G02*
X116725000Y-52675001I0J249999D01*
G01*
X116725000Y-52149999D01*
G75*
G02*
X116974999Y-51900000I249999J0D01*
G01*
X117875001Y-51900000D01*
G75*
G02*
X118125000Y-52149999I0J-249999D01*
G01*
X118125000Y-52675001D01*
G75*
G02*
X117875001Y-52925000I-249999J0D01*
G01*
G37*
%TD.AperFunction*%
%TD*%
%TO.P,R17,1*%
%TO.N,Net-(R17-Pad1)*%
%TA.AperFunction,SMDPad,CuDef*%
G36*
G01*
X116999999Y-47862500D02*
X117900001Y-47862500D01*
G75*
G02*
X118150000Y-48112499I0J-249999D01*
G01*
X118150000Y-48637501D01*
G75*
G02*
X117900001Y-48887500I-249999J0D01*
G01*
X116999999Y-48887500D01*
G75*
G02*
X116750000Y-48637501I0J249999D01*
G01*
X116750000Y-48112499D01*
G75*
G02*
X116999999Y-47862500I249999J0D01*
G01*
G37*
%TD.AperFunction*%
%TO.P,R17,2*%
%TO.N,GND*%
%TA.AperFunction,SMDPad,CuDef*%
G36*
G01*
X116999999Y-49687500D02*
X117900001Y-49687500D01*
G75*
G02*
X118150000Y-49937499I0J-249999D01*
G01*
X118150000Y-50462501D01*
G75*
G02*
X117900001Y-50712500I-249999J0D01*
G01*
X116999999Y-50712500D01*
G75*
G02*
X116750000Y-50462501I0J249999D01*
G01*
X116750000Y-49937499D01*
G75*
G02*
X116999999Y-49687500I249999J0D01*
G01*
G37*
%TD.AperFunction*%
%TD*%
%TO.P,R18,2*%
%TO.N,Net-(R16-Pad1)*%
%TA.AperFunction,SMDPad,CuDef*%
G36*
G01*
X117875001Y-56675000D02*
X116974999Y-56675000D01*
G75*
G02*
X116725000Y-56425001I0J249999D01*
G01*
X116725000Y-55899999D01*
G75*
G02*
X116974999Y-55650000I249999J0D01*
G01*
X117875001Y-55650000D01*
G75*
G02*
X118125000Y-55899999I0J-249999D01*
G01*
X118125000Y-56425001D01*
G75*
G02*
X117875001Y-56675000I-249999J0D01*
G01*
G37*
%TD.AperFunction*%
%TO.P,R18,1*%
%TO.N,ADC_REF*%
%TA.AperFunction,SMDPad,CuDef*%
G36*
G01*
X117875001Y-58500000D02*
X116974999Y-58500000D01*
G75*
G02*
X116725000Y-58250001I0J249999D01*
G01*
X116725000Y-57724999D01*
G75*
G02*
X116974999Y-57475000I249999J0D01*
G01*
X117875001Y-57475000D01*
G75*
G02*
X118125000Y-57724999I0J-249999D01*
G01*
X118125000Y-58250001D01*
G75*
G02*
X117875001Y-58500000I-249999J0D01*
G01*
G37*
%TD.AperFunction*%
%TD*%
%TO.P,R19,2*%
%TO.N,Net-(R17-Pad1)*%
%TA.AperFunction,SMDPad,CuDef*%
G36*
G01*
X117037500Y-46200001D02*
X117037500Y-45299999D01*
G75*
G02*
X117287499Y-45050000I249999J0D01*
G01*
X117812501Y-45050000D01*
G75*
G02*
X118062500Y-45299999I0J-249999D01*
G01*
X118062500Y-46200001D01*
G75*
G02*
X117812501Y-46450000I-249999J0D01*
G01*
X117287499Y-46450000D01*
G75*
G02*
X117037500Y-46200001I0J249999D01*
G01*
G37*
%TD.AperFunction*%
%TO.P,R19,1*%
%TO.N,ADC_VAL*%
%TA.AperFunction,SMDPad,CuDef*%
G36*
G01*
X115212500Y-46200001D02*
X115212500Y-45299999D01*
G75*
G02*
X115462499Y-45050000I249999J0D01*
G01*
X115987501Y-45050000D01*
G75*
G02*
X116237500Y-45299999I0J-249999D01*
G01*
X116237500Y-46200001D01*
G75*
G02*
X115987501Y-46450000I-249999J0D01*
G01*
X115462499Y-46450000D01*
G75*
G02*
X115212500Y-46200001I0J249999D01*
G01*
G37*
%TD.AperFunction*%
%TD*%
%TO.P,U2,1*%
%TO.N,Net-(R8-Pad1)*%
%TA.AperFunction,SMDPad,CuDef*%
G36*
G01*
X107225000Y-49565000D02*
X107225000Y-49265000D01*
G75*
G02*
X107375000Y-49115000I150000J0D01*
G01*
X109025000Y-49115000D01*
G75*
G02*
X109175000Y-49265000I0J-150000D01*
G01*
X109175000Y-49565000D01*
G75*
G02*
X109025000Y-49715000I-150000J0D01*
G01*
X107375000Y-49715000D01*
G75*
G02*
X107225000Y-49565000I0J150000D01*
G01*
G37*
%TD.AperFunction*%
%TO.P,U2,2*%
%TO.N,Net-(R3-Pad2)*%
%TA.AperFunction,SMDPad,CuDef*%
G36*
G01*
X107225000Y-50835000D02*
X107225000Y-50535000D01*
G75*
G02*
X107375000Y-50385000I150000J0D01*
G01*
X109025000Y-50385000D01*
G75*
G02*
X109175000Y-50535000I0J-150000D01*
G01*
X109175000Y-50835000D01*
G75*
G02*
X109025000Y-50985000I-150000J0D01*
G01*
X107375000Y-50985000D01*
G75*
G02*
X107225000Y-50835000I0J150000D01*
G01*
G37*
%TD.AperFunction*%
%TO.P,U2,3*%
%TO.N,Net-(R2-Pad1)*%
%TA.AperFunction,SMDPad,CuDef*%
G36*
G01*
X107225000Y-52105000D02*
X107225000Y-51805000D01*
G75*
G02*
X107375000Y-51655000I150000J0D01*
G01*
X109025000Y-51655000D01*
G75*
G02*
X109175000Y-51805000I0J-150000D01*
G01*
X109175000Y-52105000D01*
G75*
G02*
X109025000Y-52255000I-150000J0D01*
G01*
X107375000Y-52255000D01*
G75*
G02*
X107225000Y-52105000I0J150000D01*
G01*
G37*
%TD.AperFunction*%
%TO.P,U2,4*%
%TO.N,5V*%
%TA.AperFunction,SMDPad,CuDef*%
G36*
G01*
X107225000Y-53375000D02*
X107225000Y-53075000D01*
G75*
G02*
X107375000Y-52925000I150000J0D01*
G01*
X109025000Y-52925000D01*
G75*
G02*
X109175000Y-53075000I0J-150000D01*
G01*
X109175000Y-53375000D01*
G75*
G02*
X109025000Y-53525000I-150000J0D01*
G01*
X107375000Y-53525000D01*
G75*
G02*
X107225000Y-53375000I0J150000D01*
G01*
G37*
%TD.AperFunction*%
%TO.P,U2,5*%
%TO.N,Net-(C6-Pad2)*%
%TA.AperFunction,SMDPad,CuDef*%
G36*
G01*
X107225000Y-54645000D02*
X107225000Y-54345000D01*
G75*
G02*
X107375000Y-54195000I150000J0D01*
G01*
X109025000Y-54195000D01*
G75*
G02*
X109175000Y-54345000I0J-150000D01*
G01*
X109175000Y-54645000D01*
G75*
G02*
X109025000Y-54795000I-150000J0D01*
G01*
X107375000Y-54795000D01*
G75*
G02*
X107225000Y-54645000I0J150000D01*
G01*
G37*
%TD.AperFunction*%
%TO.P,U2,6*%
%TO.N,Net-(R4-Pad2)*%
%TA.AperFunction,SMDPad,CuDef*%
G36*
G01*
X107225000Y-55915000D02*
X107225000Y-55615000D01*
G75*
G02*
X107375000Y-55465000I150000J0D01*
G01*
X109025000Y-55465000D01*
G75*
G02*
X109175000Y-55615000I0J-150000D01*
G01*
X109175000Y-55915000D01*
G75*
G02*
X109025000Y-56065000I-150000J0D01*
G01*
X107375000Y-56065000D01*
G75*
G02*
X107225000Y-55915000I0J150000D01*
G01*
G37*
%TD.AperFunction*%
%TO.P,U2,7*%
%TO.N,Net-(R9-Pad1)*%
%TA.AperFunction,SMDPad,CuDef*%
G36*
G01*
X107225000Y-57185000D02*
X107225000Y-56885000D01*
G75*
G02*
X107375000Y-56735000I150000J0D01*
G01*
X109025000Y-56735000D01*
G75*
G02*
X109175000Y-56885000I0J-150000D01*
G01*
X109175000Y-57185000D01*
G75*
G02*
X109025000Y-57335000I-150000J0D01*
G01*
X107375000Y-57335000D01*
G75*
G02*
X107225000Y-57185000I0J150000D01*
G01*
G37*
%TD.AperFunction*%
%TO.P,U2,8*%
%TO.N,ADC_REF*%
%TA.AperFunction,SMDPad,CuDef*%
G36*
G01*
X112175000Y-57185000D02*
X112175000Y-56885000D01*
G75*
G02*
X112325000Y-56735000I150000J0D01*
G01*
X113975000Y-56735000D01*
G75*
G02*
X114125000Y-56885000I0J-150000D01*
G01*
X114125000Y-57185000D01*
G75*
G02*
X113975000Y-57335000I-150000J0D01*
G01*
X112325000Y-57335000D01*
G75*
G02*
X112175000Y-57185000I0J150000D01*
G01*
G37*
%TD.AperFunction*%
%TO.P,U2,9*%
%TO.N,Net-(R16-Pad1)*%
%TA.AperFunction,SMDPad,CuDef*%
G36*
G01*
X112175000Y-55915000D02*
X112175000Y-55615000D01*
G75*
G02*
X112325000Y-55465000I150000J0D01*
G01*
X113975000Y-55465000D01*
G75*
G02*
X114125000Y-55615000I0J-150000D01*
G01*
X114125000Y-55915000D01*
G75*
G02*
X113975000Y-56065000I-150000J0D01*
G01*
X112325000Y-56065000D01*
G75*
G02*
X112175000Y-55915000I0J150000D01*
G01*
G37*
%TD.AperFunction*%
%TO.P,U2,10*%
%TO.N,Net-(R8-Pad1)*%
%TA.AperFunction,SMDPad,CuDef*%
G36*
G01*
X112175000Y-54645000D02*
X112175000Y-54345000D01*
G75*
G02*
X112325000Y-54195000I150000J0D01*
G01*
X113975000Y-54195000D01*
G75*
G02*
X114125000Y-54345000I0J-150000D01*
G01*
X114125000Y-54645000D01*
G75*
G02*
X113975000Y-54795000I-150000J0D01*
G01*
X112325000Y-54795000D01*
G75*
G02*
X112175000Y-54645000I0J150000D01*
G01*
G37*
%TD.AperFunction*%
%TO.P,U2,11*%
%TO.N,GND*%
%TA.AperFunction,SMDPad,CuDef*%
G36*
G01*
X112175000Y-53375000D02*
X112175000Y-53075000D01*
G75*
G02*
X112325000Y-52925000I150000J0D01*
G01*
X113975000Y-52925000D01*
G75*
G02*
X114125000Y-53075000I0J-150000D01*
G01*
X114125000Y-53375000D01*
G75*
G02*
X113975000Y-53525000I-150000J0D01*
G01*
X112325000Y-53525000D01*
G75*
G02*
X112175000Y-53375000I0J150000D01*
G01*
G37*
%TD.AperFunction*%
%TO.P,U2,12*%
%TO.N,Net-(R9-Pad1)*%
%TA.AperFunction,SMDPad,CuDef*%
G36*
G01*
X112175000Y-52105000D02*
X112175000Y-51805000D01*
G75*
G02*
X112325000Y-51655000I150000J0D01*
G01*
X113975000Y-51655000D01*
G75*
G02*
X114125000Y-51805000I0J-150000D01*
G01*
X114125000Y-52105000D01*
G75*
G02*
X113975000Y-52255000I-150000J0D01*
G01*
X112325000Y-52255000D01*
G75*
G02*
X112175000Y-52105000I0J150000D01*
G01*
G37*
%TD.AperFunction*%
%TO.P,U2,13*%
%TO.N,Net-(R17-Pad1)*%
%TA.AperFunction,SMDPad,CuDef*%
G36*
G01*
X112175000Y-50835000D02*
X112175000Y-50535000D01*
G75*
G02*
X112325000Y-50385000I150000J0D01*
G01*
X113975000Y-50385000D01*
G75*
G02*
X114125000Y-50535000I0J-150000D01*
G01*
X114125000Y-50835000D01*
G75*
G02*
X113975000Y-50985000I-150000J0D01*
G01*
X112325000Y-50985000D01*
G75*
G02*
X112175000Y-50835000I0J150000D01*
G01*
G37*
%TD.AperFunction*%
%TO.P,U2,14*%
%TO.N,ADC_VAL*%
%TA.AperFunction,SMDPad,CuDef*%
G36*
G01*
X112175000Y-49565000D02*
X112175000Y-49265000D01*
G75*
G02*
X112325000Y-49115000I150000J0D01*
G01*
X113975000Y-49115000D01*
G75*
G02*
X114125000Y-49265000I0J-150000D01*
G01*
X114125000Y-49565000D01*
G75*
G02*
X113975000Y-49715000I-150000J0D01*
G01*
X112325000Y-49715000D01*
G75*
G02*
X112175000Y-49565000I0J150000D01*
G01*
G37*
%TD.AperFunction*%
%TD*%
D15*
%TO.P,U3,3*%
%TO.N,GND*%
X93000000Y-36625000D03*
%TO.P,U3,2*%
%TO.N,V_REF*%
X91000000Y-37575000D03*
%TO.P,U3,1*%
X91000000Y-35675000D03*
%TD*%
D16*
%TO.N,GND*%
X111550000Y-42700000D03*
X104250000Y-56675000D03*
X99275000Y-36075000D03*
X92800000Y-43825000D03*
X115525000Y-53225000D03*
%TO.N,5V*%
X104550000Y-33800000D03*
%TO.N,Net-(C5-Pad2)*%
X101150000Y-50850000D03*
X91125000Y-50700000D03*
X106100000Y-61250000D03*
%TO.N,Current_Source*%
X104100000Y-46875000D03*
X102575000Y-56500000D03*
%TO.N,Net-(C6-Pad2)*%
X91150000Y-56050000D03*
%TO.N,V_REF*%
X90575000Y-40375000D03*
%TO.N,ADC_REF*%
X111300000Y-38250000D03*
%TO.N,ADC_VAL*%
X108750000Y-38225000D03*
%TO.N,Net-(R8-Pad1)*%
X115550000Y-54550000D03*
X107575000Y-45325000D03*
%TO.N,Net-(R9-Pad1)*%
X106100000Y-59075000D03*
X115375000Y-51700000D03*
%TO.N,Net-(R10-Pad1)*%
X104775000Y-38950000D03*
X90425000Y-42100000D03*
%TD*%
D17*
%TO.N,GND*%
X93000000Y-32000000D02*
X92850000Y-31850000D01*
X93000000Y-36625000D02*
X93000000Y-32000000D01*
X100700000Y-33825000D02*
X100700000Y-36500000D01*
X92805000Y-43830000D02*
X92800000Y-43825000D01*
X95200000Y-43830000D02*
X92805000Y-43830000D01*
X100650000Y-36550000D02*
X100700000Y-36500000D01*
X95212500Y-43842500D02*
X95200000Y-43830000D01*
X95212500Y-46600000D02*
X95212500Y-43842500D01*
X93000000Y-36625000D02*
X93000000Y-36550000D01*
X99700000Y-36500000D02*
X99275000Y-36075000D01*
X100700000Y-36500000D02*
X99700000Y-36500000D01*
X93000000Y-36625000D02*
X93375000Y-36625000D01*
X93375000Y-36625000D02*
X95075000Y-34925000D01*
X95075000Y-34925000D02*
X98750000Y-34925000D01*
X99275000Y-35450000D02*
X99275000Y-36075000D01*
X98750000Y-34925000D02*
X99275000Y-35450000D01*
X111475000Y-44625000D02*
X111475000Y-47125000D01*
X111475000Y-47125000D02*
X111475000Y-48300000D01*
X111475000Y-48300000D02*
X111250000Y-48525000D01*
X111250000Y-48525000D02*
X111250000Y-53075000D01*
X111400000Y-53225000D02*
X113150000Y-53225000D01*
X111250000Y-53075000D02*
X111400000Y-53225000D01*
X113150000Y-53225000D02*
X115525000Y-53225000D01*
X104800000Y-56175000D02*
X104300000Y-56675000D01*
X104800000Y-55025000D02*
X104800000Y-56175000D01*
X115525000Y-53225000D02*
X116025000Y-52725000D01*
X117112500Y-52725000D02*
X117425000Y-52412500D01*
X116025000Y-52725000D02*
X117112500Y-52725000D01*
X117450000Y-52387500D02*
X117425000Y-52412500D01*
X117450000Y-50200000D02*
X117450000Y-52387500D01*
X111550000Y-44550000D02*
X111475000Y-44625000D01*
X111550000Y-42700000D02*
X111550000Y-44550000D01*
%TO.N,5V*%
X88975000Y-33850000D02*
X88975000Y-33350000D01*
X88975000Y-33350000D02*
X88475000Y-32850000D01*
X88475000Y-32850000D02*
X86725000Y-32850000D01*
X85800000Y-31925000D02*
X84525000Y-31925000D01*
X86725000Y-32850000D02*
X85800000Y-31925000D01*
X102600000Y-33825000D02*
X102600000Y-36500000D01*
X102600000Y-39620000D02*
X102200000Y-40020000D01*
X102600000Y-36500000D02*
X102600000Y-39620000D01*
X104525000Y-33825000D02*
X104550000Y-33800000D01*
X102600000Y-33825000D02*
X104525000Y-33825000D01*
X109575000Y-44625000D02*
X109575000Y-47125000D01*
X108200000Y-53225000D02*
X109475000Y-53225000D01*
X109475000Y-53225000D02*
X110000000Y-52700000D01*
X110000000Y-47550000D02*
X109575000Y-47125000D01*
X110000000Y-52700000D02*
X110000000Y-47550000D01*
X109575000Y-44625000D02*
X109575000Y-41050000D01*
X104550000Y-36025000D02*
X104550000Y-33800000D01*
X109575000Y-41050000D02*
X104550000Y-36025000D01*
X84525000Y-31925000D02*
X84525000Y-31250000D01*
X84525000Y-31250000D02*
X85400000Y-30375000D01*
X85400000Y-30375000D02*
X101575000Y-30375000D01*
X102600000Y-31400000D02*
X102600000Y-33825000D01*
X101575000Y-30375000D02*
X102600000Y-31400000D01*
%TO.N,Net-(C5-Pad2)*%
X100400000Y-53212500D02*
X100400000Y-52275000D01*
X102100000Y-51325000D02*
X105550000Y-51325000D01*
X100387500Y-53200000D02*
X100400000Y-53212500D01*
X98200000Y-53200000D02*
X100387500Y-53200000D01*
X106125000Y-61275000D02*
X106100000Y-61250000D01*
X107750000Y-61275000D02*
X106125000Y-61275000D01*
X91125000Y-52350000D02*
X91150000Y-52375000D01*
X91125000Y-50700000D02*
X91125000Y-52350000D01*
X98950000Y-53200000D02*
X94150000Y-53200000D01*
X93325000Y-52375000D02*
X91150000Y-52375000D01*
X94150000Y-53200000D02*
X93325000Y-52375000D01*
D18*
X100400000Y-51600000D02*
X101150000Y-50850000D01*
X100400000Y-52275000D02*
X100400000Y-51600000D01*
X101625000Y-51325000D02*
X101150000Y-50850000D01*
X102100000Y-51325000D02*
X101625000Y-51325000D01*
D17*
%TO.N,Current_Source*%
X102650000Y-44280000D02*
X102200000Y-43830000D01*
X102650000Y-46800000D02*
X102650000Y-44280000D01*
X100400000Y-55037500D02*
X102575000Y-55037500D01*
X100337500Y-55100000D02*
X100400000Y-55037500D01*
X98200000Y-55100000D02*
X100337500Y-55100000D01*
X102575000Y-56575000D02*
X102600000Y-56600000D01*
X102575000Y-55037500D02*
X102575000Y-56575000D01*
X104025000Y-46800000D02*
X104100000Y-46875000D01*
X102650000Y-46800000D02*
X104025000Y-46800000D01*
%TO.N,Net-(C6-Pad2)*%
X91150000Y-56050000D02*
X91150000Y-54275000D01*
X92775000Y-57675000D02*
X91150000Y-56050000D01*
X92775000Y-57675000D02*
X105325000Y-57675000D01*
X105325000Y-57675000D02*
X106250000Y-56750000D01*
X106250000Y-56750000D02*
X106250000Y-55000000D01*
X106755000Y-54495000D02*
X108200000Y-54495000D01*
X106250000Y-55000000D02*
X106755000Y-54495000D01*
%TO.N,V_REF*%
X91000000Y-35675000D02*
X91000000Y-37575000D01*
X88025000Y-37575000D02*
X91000000Y-37575000D01*
X91000000Y-38900000D02*
X92425000Y-40325000D01*
X91000000Y-37575000D02*
X91000000Y-38900000D01*
X90625000Y-40325000D02*
X90575000Y-40375000D01*
X92425000Y-40325000D02*
X90625000Y-40325000D01*
%TO.N,ADC_REF*%
X117425000Y-57987500D02*
X113662500Y-57987500D01*
X113150000Y-57475000D02*
X113150000Y-57035000D01*
X113662500Y-57987500D02*
X113150000Y-57475000D01*
X117425000Y-57987500D02*
X118687500Y-57987500D01*
X118687500Y-57987500D02*
X119150000Y-57525000D01*
X119150000Y-57525000D02*
X119150000Y-44425000D01*
X119150000Y-44425000D02*
X112975000Y-38250000D01*
X112975000Y-38250000D02*
X111300000Y-38250000D01*
X111300000Y-38250000D02*
X111300000Y-38250000D01*
%TO.N,ADC_VAL*%
X113150000Y-49415000D02*
X113790000Y-48775000D01*
X113790000Y-47685000D02*
X115725000Y-45750000D01*
X113790000Y-48775000D02*
X113790000Y-47685000D01*
X115725000Y-45750000D02*
X115725000Y-45000000D01*
X115725000Y-45000000D02*
X108950000Y-38225000D01*
X108950000Y-38225000D02*
X108750000Y-38225000D01*
X108750000Y-38225000D02*
X108750000Y-38225000D01*
%TO.N,Net-(Q1-Pad1)*%
X87075000Y-33850000D02*
X87075000Y-35575000D01*
X86975000Y-33750000D02*
X87075000Y-33850000D01*
X84525000Y-33750000D02*
X86975000Y-33750000D01*
%TO.N,Net-(Q1-Pad3)*%
X88975000Y-35575000D02*
X89275000Y-35575000D01*
X91025000Y-33825000D02*
X91025000Y-31850000D01*
X89275000Y-35575000D02*
X91025000Y-33825000D01*
X88025000Y-31850000D02*
X91025000Y-31850000D01*
%TO.N,Net-(R2-Pad1)*%
X106970000Y-51955000D02*
X108200000Y-51955000D01*
X105725000Y-53200000D02*
X106970000Y-51955000D01*
X104787500Y-53212500D02*
X104800000Y-53200000D01*
X102575000Y-53212500D02*
X104787500Y-53212500D01*
X105725000Y-53200000D02*
X104800000Y-53200000D01*
%TO.N,Net-(R3-Pad2)*%
X105550000Y-47287500D02*
X105737500Y-47100000D01*
X105550000Y-49500000D02*
X105550000Y-47287500D01*
X108200000Y-50685000D02*
X107160000Y-50685000D01*
X105975000Y-49500000D02*
X105550000Y-49500000D01*
X107160000Y-50685000D02*
X105975000Y-49500000D01*
%TO.N,Net-(R4-Pad2)*%
X109575000Y-61275000D02*
X109575000Y-59075000D01*
X109575000Y-59075000D02*
X109575000Y-58075000D01*
X109575000Y-58075000D02*
X109975000Y-57675000D01*
X109975000Y-57675000D02*
X109975000Y-55975000D01*
X109765000Y-55765000D02*
X108200000Y-55765000D01*
X109975000Y-55975000D02*
X109765000Y-55765000D01*
%TO.N,Net-(R6-Pad1)*%
X102662500Y-49050000D02*
X102662500Y-48837500D01*
X100825000Y-47000000D02*
X100825000Y-46800000D01*
X102662500Y-48837500D02*
X100825000Y-47000000D01*
%TO.N,Net-(R11-Pad2)*%
X95187500Y-40007500D02*
X95200000Y-40020000D01*
X95162500Y-39982500D02*
X95200000Y-40020000D01*
X95162500Y-37175000D02*
X95162500Y-39982500D01*
X99962490Y-48174990D02*
X99962490Y-44087490D01*
X99962490Y-44087490D02*
X97850010Y-41975010D01*
X100837500Y-49050000D02*
X99962490Y-48174990D01*
X97850010Y-41975010D02*
X97850010Y-38924990D01*
X97850010Y-38924990D02*
X98375000Y-38400000D01*
X98349990Y-38374990D02*
X98349990Y-35799990D01*
X98375000Y-38400000D02*
X98349990Y-38374990D01*
X98349990Y-35799990D02*
X98150000Y-35600000D01*
X98150000Y-35600000D02*
X95700000Y-35600000D01*
X95162500Y-36137500D02*
X95162500Y-37175000D01*
X95700000Y-35600000D02*
X95162500Y-36137500D01*
%TO.N,Net-(R8-Pad1)*%
X108200000Y-47737500D02*
X107562500Y-47100000D01*
X108200000Y-49415000D02*
X108200000Y-47737500D01*
X115495000Y-54495000D02*
X115550000Y-54550000D01*
X113150000Y-54495000D02*
X115495000Y-54495000D01*
X107575000Y-47087500D02*
X107562500Y-47100000D01*
X107575000Y-45325000D02*
X107575000Y-47087500D01*
%TO.N,Net-(R9-Pad1)*%
X107750000Y-57485000D02*
X108200000Y-57035000D01*
X107750000Y-59075000D02*
X107750000Y-57485000D01*
X115120000Y-51955000D02*
X115375000Y-51700000D01*
X113150000Y-51955000D02*
X115120000Y-51955000D01*
X106100000Y-59075000D02*
X107750000Y-59075000D01*
%TO.N,Net-(R10-Pad1)*%
X92835000Y-42560000D02*
X92425000Y-42150000D01*
X95200000Y-42560000D02*
X92835000Y-42560000D01*
X104750000Y-38975000D02*
X104775000Y-38950000D01*
X104750000Y-40725000D02*
X104750000Y-38975000D01*
X90475000Y-42150000D02*
X90425000Y-42100000D01*
X92425000Y-42150000D02*
X90475000Y-42150000D01*
%TO.N,Net-(R10-Pad2)*%
X102200000Y-41290000D02*
X102200000Y-42560000D01*
X104740000Y-42560000D02*
X104750000Y-42550000D01*
X102200000Y-42560000D02*
X104740000Y-42560000D01*
%TO.N,Net-(R11-Pad1)*%
X96987500Y-37175000D02*
X96987500Y-39237500D01*
X96987500Y-39237500D02*
X97075000Y-39325000D01*
X97075000Y-39325000D02*
X97075000Y-41075000D01*
X96860000Y-41290000D02*
X95200000Y-41290000D01*
X97075000Y-41075000D02*
X96860000Y-41290000D01*
X97037500Y-41112500D02*
X97075000Y-41075000D01*
X97037500Y-46600000D02*
X97037500Y-41112500D01*
%TO.N,Net-(R16-Pad1)*%
X117027500Y-55765000D02*
X117425000Y-56162500D01*
X113150000Y-55765000D02*
X117027500Y-55765000D01*
X117425000Y-54237500D02*
X117425000Y-56162500D01*
%TO.N,Net-(R17-Pad1)*%
X113150000Y-50685000D02*
X115315000Y-50685000D01*
X115315000Y-50685000D02*
X115775000Y-50225000D01*
X115775000Y-50050000D02*
X117450000Y-48375000D01*
X115775000Y-50225000D02*
X115775000Y-50050000D01*
X117550000Y-48275000D02*
X117450000Y-48375000D01*
X117550000Y-45750000D02*
X117550000Y-48275000D01*
%TD*%
%TO.N,GND*%
X85053919Y-29539486D02*
X84897568Y-29623057D01*
X84760525Y-29735525D01*
X84732343Y-29769865D01*
X83919861Y-30582347D01*
X83885526Y-30610525D01*
X83857348Y-30644860D01*
X83857345Y-30644863D01*
X83813721Y-30698020D01*
X83690928Y-30735269D01*
X83517414Y-30828014D01*
X83365328Y-30952828D01*
X83240514Y-31104914D01*
X83147769Y-31278428D01*
X83090656Y-31466701D01*
X83071372Y-31662499D01*
X83071372Y-32187501D01*
X83090656Y-32383299D01*
X83147769Y-32571572D01*
X83240514Y-32745086D01*
X83316356Y-32837500D01*
X83240514Y-32929914D01*
X83147769Y-33103428D01*
X83090656Y-33291701D01*
X83071372Y-33487499D01*
X83071372Y-34012501D01*
X83090656Y-34208299D01*
X83147769Y-34396572D01*
X83240514Y-34570086D01*
X83365328Y-34722172D01*
X83517414Y-34846986D01*
X83690928Y-34939731D01*
X83879201Y-34996844D01*
X84074999Y-35016128D01*
X84975001Y-35016128D01*
X85170799Y-34996844D01*
X85359072Y-34939731D01*
X85532586Y-34846986D01*
X85684672Y-34722172D01*
X85743902Y-34650000D01*
X86011664Y-34650000D01*
X86045071Y-34712500D01*
X85978739Y-34836599D01*
X85935853Y-34977974D01*
X85921372Y-35125000D01*
X85921372Y-36025000D01*
X85935853Y-36172026D01*
X85978739Y-36313401D01*
X86048381Y-36443693D01*
X86142105Y-36557895D01*
X86256307Y-36651619D01*
X86386599Y-36721261D01*
X86527974Y-36764147D01*
X86675000Y-36778628D01*
X86959725Y-36778628D01*
X86928739Y-36836599D01*
X86885853Y-36977974D01*
X86871372Y-37125000D01*
X86871372Y-38025000D01*
X86885853Y-38172026D01*
X86928739Y-38313401D01*
X86998381Y-38443693D01*
X87092105Y-38557895D01*
X87206307Y-38651619D01*
X87336599Y-38721261D01*
X87477974Y-38764147D01*
X87625000Y-38778628D01*
X88425000Y-38778628D01*
X88572026Y-38764147D01*
X88713401Y-38721261D01*
X88843693Y-38651619D01*
X88957895Y-38557895D01*
X89025926Y-38475000D01*
X89990109Y-38475000D01*
X90017105Y-38507895D01*
X90100001Y-38575926D01*
X90100001Y-38855784D01*
X90095646Y-38900000D01*
X90113023Y-39076430D01*
X90149926Y-39198082D01*
X89982903Y-39267265D01*
X89778172Y-39404062D01*
X89604062Y-39578172D01*
X89467265Y-39782903D01*
X89373037Y-40010389D01*
X89325000Y-40251886D01*
X89325000Y-40498114D01*
X89373037Y-40739611D01*
X89467265Y-40967097D01*
X89596589Y-41160645D01*
X89454062Y-41303172D01*
X89317265Y-41507903D01*
X89223037Y-41735389D01*
X89175000Y-41976886D01*
X89175000Y-42223114D01*
X89223037Y-42464611D01*
X89317265Y-42692097D01*
X89454062Y-42896828D01*
X89628172Y-43070938D01*
X89832903Y-43207735D01*
X90060389Y-43301963D01*
X90301886Y-43350000D01*
X90548114Y-43350000D01*
X90789611Y-43301963D01*
X91017097Y-43207735D01*
X91221828Y-43070938D01*
X91222626Y-43070140D01*
X91265328Y-43122172D01*
X91417414Y-43246986D01*
X91590928Y-43339731D01*
X91779201Y-43396844D01*
X91974999Y-43416128D01*
X92556873Y-43416128D01*
X92658569Y-43446977D01*
X92835000Y-43464354D01*
X92879207Y-43460000D01*
X93503523Y-43460000D01*
X93500000Y-43492500D01*
X93687500Y-43680000D01*
X95050000Y-43680000D01*
X95050000Y-43660000D01*
X95350000Y-43660000D01*
X95350000Y-43680000D01*
X95370000Y-43680000D01*
X95370000Y-43980000D01*
X95350000Y-43980000D01*
X95350000Y-44692500D01*
X95537500Y-44880000D01*
X96137500Y-44883543D01*
X96137500Y-45270069D01*
X96013401Y-45203738D01*
X95872026Y-45160852D01*
X95725000Y-45146371D01*
X95550000Y-45150000D01*
X95362500Y-45337500D01*
X95362500Y-46450000D01*
X95382500Y-46450000D01*
X95382500Y-46750000D01*
X95362500Y-46750000D01*
X95362500Y-47862500D01*
X95550000Y-48050000D01*
X95725000Y-48053629D01*
X95872026Y-48039148D01*
X96013401Y-47996262D01*
X96143694Y-47926620D01*
X96206224Y-47875303D01*
X96217414Y-47884486D01*
X96390928Y-47977231D01*
X96579201Y-48034344D01*
X96774999Y-48053628D01*
X97300001Y-48053628D01*
X97495799Y-48034344D01*
X97684072Y-47977231D01*
X97857586Y-47884486D01*
X98009672Y-47759672D01*
X98134486Y-47607586D01*
X98227231Y-47434072D01*
X98284344Y-47245799D01*
X98303628Y-47050001D01*
X98303628Y-46149999D01*
X98284344Y-45954201D01*
X98227231Y-45765928D01*
X98134486Y-45592414D01*
X98009672Y-45440328D01*
X97937500Y-45381098D01*
X97937500Y-43335292D01*
X99062491Y-44460283D01*
X99062490Y-48130783D01*
X99058136Y-48174990D01*
X99062490Y-48219196D01*
X99075513Y-48351420D01*
X99126976Y-48521070D01*
X99210547Y-48677421D01*
X99323015Y-48814465D01*
X99357355Y-48842647D01*
X99571372Y-49056664D01*
X99571372Y-49500001D01*
X99590656Y-49695799D01*
X99647769Y-49884072D01*
X99740514Y-50057586D01*
X99865328Y-50209672D01*
X100012286Y-50330278D01*
X99948037Y-50485389D01*
X99900000Y-50726886D01*
X99900000Y-50862564D01*
X99811676Y-50950888D01*
X99778289Y-50978288D01*
X99668945Y-51111524D01*
X99631915Y-51180803D01*
X99587695Y-51263533D01*
X99556277Y-51367104D01*
X99537661Y-51428470D01*
X99534635Y-51459197D01*
X99520767Y-51600000D01*
X99525000Y-51642979D01*
X99525000Y-52044645D01*
X99392414Y-52115514D01*
X99312500Y-52181098D01*
X99232586Y-52115514D01*
X99059072Y-52022769D01*
X98870798Y-51965656D01*
X98675000Y-51946372D01*
X97725000Y-51946372D01*
X97529202Y-51965656D01*
X97340928Y-52022769D01*
X97167414Y-52115514D01*
X97015328Y-52240328D01*
X96966356Y-52300000D01*
X94522793Y-52300000D01*
X93992655Y-51769863D01*
X93964475Y-51735525D01*
X93827432Y-51623057D01*
X93671081Y-51539486D01*
X93501431Y-51488023D01*
X93369207Y-51475000D01*
X93369206Y-51475000D01*
X93325000Y-51470646D01*
X93280794Y-51475000D01*
X92383644Y-51475000D01*
X92334672Y-51415328D01*
X92215658Y-51317655D01*
X92232735Y-51292097D01*
X92326963Y-51064611D01*
X92375000Y-50823114D01*
X92375000Y-50576886D01*
X92326963Y-50335389D01*
X92232735Y-50107903D01*
X92095938Y-49903172D01*
X91921828Y-49729062D01*
X91717097Y-49592265D01*
X91489611Y-49498037D01*
X91248114Y-49450000D01*
X91001886Y-49450000D01*
X90760389Y-49498037D01*
X90532903Y-49592265D01*
X90328172Y-49729062D01*
X90154062Y-49903172D01*
X90017265Y-50107903D01*
X89923037Y-50335389D01*
X89875000Y-50576886D01*
X89875000Y-50823114D01*
X89923037Y-51064611D01*
X90017265Y-51292097D01*
X90052050Y-51344157D01*
X89965328Y-51415328D01*
X89840514Y-51567414D01*
X89747769Y-51740928D01*
X89690656Y-51929202D01*
X89671372Y-52125000D01*
X89671372Y-52625000D01*
X89690656Y-52820798D01*
X89747769Y-53009072D01*
X89840514Y-53182586D01*
X89957390Y-53325000D01*
X89840514Y-53467414D01*
X89747769Y-53640928D01*
X89690656Y-53829202D01*
X89671372Y-54025000D01*
X89671372Y-54525000D01*
X89690656Y-54720798D01*
X89747769Y-54909072D01*
X89840514Y-55082586D01*
X89965328Y-55234672D01*
X90111350Y-55354510D01*
X90042265Y-55457903D01*
X89948037Y-55685389D01*
X89900000Y-55926886D01*
X89900000Y-56173114D01*
X89948037Y-56414611D01*
X90042265Y-56642097D01*
X90179062Y-56846828D01*
X90353172Y-57020938D01*
X90557903Y-57157735D01*
X90785389Y-57251963D01*
X91026886Y-57300000D01*
X91127208Y-57300000D01*
X92107347Y-58280140D01*
X92135525Y-58314475D01*
X92169860Y-58342653D01*
X92169862Y-58342655D01*
X92200413Y-58367727D01*
X92272568Y-58426943D01*
X92428919Y-58510514D01*
X92598569Y-58561977D01*
X92774999Y-58579354D01*
X92819206Y-58575000D01*
X104954117Y-58575000D01*
X104898037Y-58710389D01*
X104850000Y-58951886D01*
X104850000Y-59198114D01*
X104898037Y-59439611D01*
X104992265Y-59667097D01*
X105129062Y-59871828D01*
X105303172Y-60045938D01*
X105477619Y-60162500D01*
X105303172Y-60279062D01*
X105129062Y-60453172D01*
X104992265Y-60657903D01*
X104898037Y-60885389D01*
X104850000Y-61126886D01*
X104850000Y-61373114D01*
X104898037Y-61614611D01*
X104992265Y-61842097D01*
X105129062Y-62046828D01*
X105303172Y-62220938D01*
X105507903Y-62357735D01*
X105735389Y-62451963D01*
X105976886Y-62500000D01*
X106223114Y-62500000D01*
X106464611Y-62451963D01*
X106692097Y-62357735D01*
X106706687Y-62347986D01*
X106777828Y-62434672D01*
X106929914Y-62559486D01*
X107103428Y-62652231D01*
X107291701Y-62709344D01*
X107487499Y-62728628D01*
X108012501Y-62728628D01*
X108208299Y-62709344D01*
X108396572Y-62652231D01*
X108570086Y-62559486D01*
X108662500Y-62483644D01*
X108754914Y-62559486D01*
X108928428Y-62652231D01*
X109116701Y-62709344D01*
X109312499Y-62728628D01*
X109837501Y-62728628D01*
X110033299Y-62709344D01*
X110221572Y-62652231D01*
X110395086Y-62559486D01*
X110547172Y-62434672D01*
X110671986Y-62282586D01*
X110764731Y-62109072D01*
X110821844Y-61920799D01*
X110841128Y-61725001D01*
X110841128Y-60824999D01*
X110821844Y-60629201D01*
X110764731Y-60440928D01*
X110671986Y-60267414D01*
X110596144Y-60175000D01*
X110671986Y-60082586D01*
X110764731Y-59909072D01*
X110821844Y-59720799D01*
X110841128Y-59525001D01*
X110841128Y-58624999D01*
X110821844Y-58429201D01*
X110764731Y-58240928D01*
X110728867Y-58173832D01*
X110810514Y-58021081D01*
X110861977Y-57851431D01*
X110875000Y-57719207D01*
X110875000Y-57719198D01*
X110879353Y-57675001D01*
X110875000Y-57630804D01*
X110875000Y-56019207D01*
X110879354Y-55975000D01*
X110873445Y-55915000D01*
X110861977Y-55798569D01*
X110810514Y-55628919D01*
X110726943Y-55472568D01*
X110614475Y-55335525D01*
X110580130Y-55307339D01*
X110432658Y-55159866D01*
X110404475Y-55125525D01*
X110267432Y-55013057D01*
X110111081Y-54929486D01*
X109941431Y-54878023D01*
X109895429Y-54873492D01*
X109911265Y-54821289D01*
X109928628Y-54645000D01*
X109928628Y-54345000D01*
X109911265Y-54168711D01*
X109870440Y-54034131D01*
X109977432Y-53976943D01*
X110114475Y-53864475D01*
X110142657Y-53830135D01*
X110605136Y-53367656D01*
X110639475Y-53339475D01*
X110751943Y-53202432D01*
X110835514Y-53046081D01*
X110886977Y-52876431D01*
X110900000Y-52744207D01*
X110900000Y-52744205D01*
X110904354Y-52700001D01*
X110900000Y-52655797D01*
X110900000Y-48596242D01*
X110975000Y-48603629D01*
X111137500Y-48600000D01*
X111325000Y-48412500D01*
X111325000Y-47275000D01*
X111305000Y-47275000D01*
X111305000Y-46975000D01*
X111325000Y-46975000D01*
X111325000Y-44775000D01*
X111625000Y-44775000D01*
X111625000Y-46975000D01*
X112537500Y-46975000D01*
X112725000Y-46787500D01*
X112728629Y-46400000D01*
X112714148Y-46252974D01*
X112671262Y-46111599D01*
X112601620Y-45981306D01*
X112514376Y-45875000D01*
X112601620Y-45768694D01*
X112671262Y-45638401D01*
X112714148Y-45497026D01*
X112728629Y-45350000D01*
X112725000Y-44962500D01*
X112537500Y-44775000D01*
X111625000Y-44775000D01*
X111325000Y-44775000D01*
X111305000Y-44775000D01*
X111305000Y-44475000D01*
X111325000Y-44475000D01*
X111325000Y-43337500D01*
X111625000Y-43337500D01*
X111625000Y-44475000D01*
X112537500Y-44475000D01*
X112725000Y-44287500D01*
X112728629Y-43900000D01*
X112714148Y-43752974D01*
X112671262Y-43611599D01*
X112601620Y-43481306D01*
X112507896Y-43367104D01*
X112393694Y-43273380D01*
X112263401Y-43203738D01*
X112122026Y-43160852D01*
X111975000Y-43146371D01*
X111812500Y-43150000D01*
X111625000Y-43337500D01*
X111325000Y-43337500D01*
X111137500Y-43150000D01*
X110975000Y-43146371D01*
X110827974Y-43160852D01*
X110686599Y-43203738D01*
X110556306Y-43273380D01*
X110475000Y-43340107D01*
X110475000Y-41094203D01*
X110479354Y-41049999D01*
X110476857Y-41024649D01*
X114496369Y-45044161D01*
X114478156Y-45104201D01*
X114458872Y-45299999D01*
X114458872Y-45743335D01*
X113184860Y-47017348D01*
X113150526Y-47045525D01*
X113122348Y-47079860D01*
X113122345Y-47079863D01*
X113038057Y-47182569D01*
X112954487Y-47338919D01*
X112903023Y-47508570D01*
X112885646Y-47685000D01*
X112890001Y-47729216D01*
X112890000Y-48361372D01*
X112525560Y-48361372D01*
X112601620Y-48268694D01*
X112671262Y-48138401D01*
X112714148Y-47997026D01*
X112728629Y-47850000D01*
X112725000Y-47462500D01*
X112537500Y-47275000D01*
X111625000Y-47275000D01*
X111625000Y-48412500D01*
X111769799Y-48557299D01*
X111686039Y-48626039D01*
X111573661Y-48762971D01*
X111490157Y-48919197D01*
X111438735Y-49088711D01*
X111421372Y-49265000D01*
X111421372Y-49565000D01*
X111438735Y-49741289D01*
X111490157Y-49910803D01*
X111564559Y-50050000D01*
X111490157Y-50189197D01*
X111438735Y-50358711D01*
X111421372Y-50535000D01*
X111421372Y-50835000D01*
X111438735Y-51011289D01*
X111490157Y-51180803D01*
X111564559Y-51320000D01*
X111490157Y-51459197D01*
X111438735Y-51628711D01*
X111421372Y-51805000D01*
X111421372Y-52105000D01*
X111438735Y-52281289D01*
X111490157Y-52450803D01*
X111534401Y-52533579D01*
X111482810Y-52626957D01*
X111437965Y-52767723D01*
X111425000Y-52887500D01*
X111612500Y-53075000D01*
X113000000Y-53075000D01*
X113000000Y-53055000D01*
X113300000Y-53055000D01*
X113300000Y-53075000D01*
X114687500Y-53075000D01*
X114875000Y-52887500D01*
X114871482Y-52855000D01*
X114897011Y-52855000D01*
X115010389Y-52901963D01*
X115251886Y-52950000D01*
X115498114Y-52950000D01*
X115739611Y-52901963D01*
X115967097Y-52807735D01*
X115973897Y-52803191D01*
X115971371Y-52925000D01*
X115985852Y-53072026D01*
X116028738Y-53213401D01*
X116098380Y-53343694D01*
X116149697Y-53406224D01*
X116140514Y-53417414D01*
X116129926Y-53437223D01*
X115914611Y-53348037D01*
X115673114Y-53300000D01*
X115426886Y-53300000D01*
X115185389Y-53348037D01*
X114957903Y-53442265D01*
X114836131Y-53523631D01*
X114687500Y-53375000D01*
X113300000Y-53375000D01*
X113300000Y-53395000D01*
X113000000Y-53395000D01*
X113000000Y-53375000D01*
X111612500Y-53375000D01*
X111425000Y-53562500D01*
X111437965Y-53682277D01*
X111482810Y-53823043D01*
X111534401Y-53916421D01*
X111490157Y-53999197D01*
X111438735Y-54168711D01*
X111421372Y-54345000D01*
X111421372Y-54645000D01*
X111438735Y-54821289D01*
X111490157Y-54990803D01*
X111564559Y-55130000D01*
X111490157Y-55269197D01*
X111438735Y-55438711D01*
X111421372Y-55615000D01*
X111421372Y-55915000D01*
X111438735Y-56091289D01*
X111490157Y-56260803D01*
X111564559Y-56400000D01*
X111490157Y-56539197D01*
X111438735Y-56708711D01*
X111421372Y-56885000D01*
X111421372Y-57185000D01*
X111438735Y-57361289D01*
X111490157Y-57530803D01*
X111573661Y-57687029D01*
X111686039Y-57823961D01*
X111822971Y-57936339D01*
X111979197Y-58019843D01*
X112148711Y-58071265D01*
X112325000Y-58088628D01*
X112489313Y-58088628D01*
X112510525Y-58114475D01*
X112544866Y-58142658D01*
X112994839Y-58592630D01*
X113023025Y-58626975D01*
X113160068Y-58739443D01*
X113316419Y-58823014D01*
X113486069Y-58874477D01*
X113618293Y-58887500D01*
X113618302Y-58887500D01*
X113662499Y-58891853D01*
X113706696Y-58887500D01*
X116206098Y-58887500D01*
X116265328Y-58959672D01*
X116417414Y-59084486D01*
X116590928Y-59177231D01*
X116779201Y-59234344D01*
X116974999Y-59253628D01*
X117875001Y-59253628D01*
X118070799Y-59234344D01*
X118259072Y-59177231D01*
X118432586Y-59084486D01*
X118584672Y-58959672D01*
X118643857Y-58887555D01*
X118687500Y-58891854D01*
X118731706Y-58887500D01*
X118731707Y-58887500D01*
X118863931Y-58874477D01*
X119033581Y-58823014D01*
X119189932Y-58739443D01*
X119326975Y-58626975D01*
X119355158Y-58592634D01*
X119755131Y-58192660D01*
X119789475Y-58164475D01*
X119901943Y-58027432D01*
X119985514Y-57871081D01*
X120036977Y-57701431D01*
X120050000Y-57569207D01*
X120050000Y-57569206D01*
X120054354Y-57525000D01*
X120050000Y-57480793D01*
X120050000Y-44469207D01*
X120054354Y-44425000D01*
X120036977Y-44248569D01*
X119985514Y-44078918D01*
X119901943Y-43922568D01*
X119861310Y-43873057D01*
X119789475Y-43785525D01*
X119755135Y-43757343D01*
X113642657Y-37644865D01*
X113614475Y-37610525D01*
X113477432Y-37498057D01*
X113321081Y-37414486D01*
X113151431Y-37363023D01*
X113019207Y-37350000D01*
X113019206Y-37350000D01*
X112975000Y-37345646D01*
X112930794Y-37350000D01*
X112167766Y-37350000D01*
X112096828Y-37279062D01*
X111892097Y-37142265D01*
X111664611Y-37048037D01*
X111423114Y-37000000D01*
X111176886Y-37000000D01*
X110935389Y-37048037D01*
X110707903Y-37142265D01*
X110503172Y-37279062D01*
X110329062Y-37453172D01*
X110192265Y-37657903D01*
X110098037Y-37885389D01*
X110062390Y-38064598D01*
X109975249Y-37977457D01*
X109951963Y-37860389D01*
X109857735Y-37632903D01*
X109720938Y-37428172D01*
X109546828Y-37254062D01*
X109342097Y-37117265D01*
X109114611Y-37023037D01*
X108873114Y-36975000D01*
X108626886Y-36975000D01*
X108385389Y-37023037D01*
X108157903Y-37117265D01*
X107953172Y-37254062D01*
X107779062Y-37428172D01*
X107642265Y-37632903D01*
X107580298Y-37782505D01*
X105450000Y-35652208D01*
X105450000Y-35167414D01*
X107140000Y-35167414D01*
X107140000Y-35482586D01*
X107201487Y-35791703D01*
X107322098Y-36082884D01*
X107497199Y-36344941D01*
X107720059Y-36567801D01*
X107982116Y-36742902D01*
X108273297Y-36863513D01*
X108582414Y-36925000D01*
X108897586Y-36925000D01*
X109206703Y-36863513D01*
X109497884Y-36742902D01*
X109759941Y-36567801D01*
X109982801Y-36344941D01*
X110010000Y-36304235D01*
X110037199Y-36344941D01*
X110260059Y-36567801D01*
X110522116Y-36742902D01*
X110813297Y-36863513D01*
X111122414Y-36925000D01*
X111437586Y-36925000D01*
X111746703Y-36863513D01*
X112037884Y-36742902D01*
X112299941Y-36567801D01*
X112522801Y-36344941D01*
X112550000Y-36304235D01*
X112577199Y-36344941D01*
X112800059Y-36567801D01*
X113062116Y-36742902D01*
X113353297Y-36863513D01*
X113662414Y-36925000D01*
X113977586Y-36925000D01*
X114286703Y-36863513D01*
X114577884Y-36742902D01*
X114839941Y-36567801D01*
X115062801Y-36344941D01*
X115093198Y-36299448D01*
X115292075Y-36516450D01*
X115545035Y-36701898D01*
X115829314Y-36834433D01*
X115962654Y-36874876D01*
X116210000Y-36729513D01*
X116210000Y-35475000D01*
X116190000Y-35475000D01*
X116190000Y-35175000D01*
X116210000Y-35175000D01*
X116210000Y-33920487D01*
X116510000Y-33920487D01*
X116510000Y-35175000D01*
X116530000Y-35175000D01*
X116530000Y-35475000D01*
X116510000Y-35475000D01*
X116510000Y-36729513D01*
X116757346Y-36874876D01*
X116890686Y-36834433D01*
X117174965Y-36701898D01*
X117394997Y-36540590D01*
X117423381Y-36593693D01*
X117517105Y-36707895D01*
X117631307Y-36801619D01*
X117761599Y-36871261D01*
X117902974Y-36914147D01*
X118050000Y-36928628D01*
X119750000Y-36928628D01*
X119897026Y-36914147D01*
X120038401Y-36871261D01*
X120168693Y-36801619D01*
X120282895Y-36707895D01*
X120376619Y-36593693D01*
X120446261Y-36463401D01*
X120489147Y-36322026D01*
X120503628Y-36175000D01*
X120503628Y-34475000D01*
X120489147Y-34327974D01*
X120446261Y-34186599D01*
X120376619Y-34056307D01*
X120282895Y-33942105D01*
X120168693Y-33848381D01*
X120038401Y-33778739D01*
X119897026Y-33735853D01*
X119750000Y-33721372D01*
X118050000Y-33721372D01*
X117902974Y-33735853D01*
X117761599Y-33778739D01*
X117631307Y-33848381D01*
X117517105Y-33942105D01*
X117423381Y-34056307D01*
X117394997Y-34109410D01*
X117174965Y-33948102D01*
X116890686Y-33815567D01*
X116757346Y-33775124D01*
X116510000Y-33920487D01*
X116210000Y-33920487D01*
X115962654Y-33775124D01*
X115829314Y-33815567D01*
X115545035Y-33948102D01*
X115292075Y-34133550D01*
X115093198Y-34350552D01*
X115062801Y-34305059D01*
X114839941Y-34082199D01*
X114577884Y-33907098D01*
X114286703Y-33786487D01*
X113977586Y-33725000D01*
X113662414Y-33725000D01*
X113353297Y-33786487D01*
X113062116Y-33907098D01*
X112800059Y-34082199D01*
X112577199Y-34305059D01*
X112550000Y-34345765D01*
X112522801Y-34305059D01*
X112299941Y-34082199D01*
X112037884Y-33907098D01*
X111746703Y-33786487D01*
X111437586Y-33725000D01*
X111122414Y-33725000D01*
X110813297Y-33786487D01*
X110522116Y-33907098D01*
X110260059Y-34082199D01*
X110037199Y-34305059D01*
X110010000Y-34345765D01*
X109982801Y-34305059D01*
X109759941Y-34082199D01*
X109497884Y-33907098D01*
X109206703Y-33786487D01*
X108897586Y-33725000D01*
X108582414Y-33725000D01*
X108273297Y-33786487D01*
X107982116Y-33907098D01*
X107720059Y-34082199D01*
X107497199Y-34305059D01*
X107322098Y-34567116D01*
X107201487Y-34858297D01*
X107140000Y-35167414D01*
X105450000Y-35167414D01*
X105450000Y-34667766D01*
X105520938Y-34596828D01*
X105657735Y-34392097D01*
X105751963Y-34164611D01*
X105800000Y-33923114D01*
X105800000Y-33676886D01*
X105751963Y-33435389D01*
X105657735Y-33207903D01*
X105520938Y-33003172D01*
X105346828Y-32829062D01*
X105142097Y-32692265D01*
X104914611Y-32598037D01*
X104673114Y-32550000D01*
X104426886Y-32550000D01*
X104185389Y-32598037D01*
X103957903Y-32692265D01*
X103753172Y-32829062D01*
X103721177Y-32861057D01*
X103684486Y-32792414D01*
X103559672Y-32640328D01*
X103500000Y-32591356D01*
X103500000Y-31444206D01*
X103504354Y-31400000D01*
X103486977Y-31223569D01*
X103464660Y-31150000D01*
X103435514Y-31053919D01*
X103351943Y-30897568D01*
X103239475Y-30760525D01*
X103205136Y-30732344D01*
X102242657Y-29769865D01*
X102214475Y-29735525D01*
X102077432Y-29623057D01*
X101921081Y-29539486D01*
X101790914Y-29500000D01*
X121800000Y-29500000D01*
X121800001Y-63975000D01*
X76575000Y-63975000D01*
X76575000Y-59019336D01*
X79671286Y-59019336D01*
X79695047Y-59127287D01*
X79829907Y-59441972D01*
X80023568Y-59724300D01*
X80268587Y-59963422D01*
X80555549Y-60150148D01*
X80873425Y-60277303D01*
X81210000Y-60340000D01*
X82200000Y-60340000D01*
X82200000Y-58750000D01*
X82500000Y-58750000D01*
X82500000Y-60340000D01*
X83490000Y-60340000D01*
X83826575Y-60277303D01*
X84144451Y-60150148D01*
X84431413Y-59963422D01*
X84676432Y-59724300D01*
X84870093Y-59441972D01*
X85004953Y-59127287D01*
X85028714Y-59019336D01*
X84885237Y-58750000D01*
X82500000Y-58750000D01*
X82200000Y-58750000D01*
X79814763Y-58750000D01*
X79671286Y-59019336D01*
X76575000Y-59019336D01*
X76575000Y-58180664D01*
X79671286Y-58180664D01*
X79814763Y-58450000D01*
X82200000Y-58450000D01*
X82200000Y-56860000D01*
X82500000Y-56860000D01*
X82500000Y-58450000D01*
X84885237Y-58450000D01*
X85028714Y-58180664D01*
X85004953Y-58072713D01*
X84870093Y-57758028D01*
X84676432Y-57475700D01*
X84431413Y-57236578D01*
X84144451Y-57049852D01*
X83826575Y-56922697D01*
X83490000Y-56860000D01*
X82500000Y-56860000D01*
X82200000Y-56860000D01*
X81210000Y-56860000D01*
X80873425Y-56922697D01*
X80555549Y-57049852D01*
X80268587Y-57236578D01*
X80023568Y-57475700D01*
X79829907Y-57758028D01*
X79695047Y-58072713D01*
X79671286Y-58180664D01*
X76575000Y-58180664D01*
X76575000Y-53600000D01*
X79611581Y-53600000D01*
X79645176Y-53941100D01*
X79744671Y-54269091D01*
X79906243Y-54571370D01*
X80123681Y-54836319D01*
X80388630Y-55053757D01*
X80690909Y-55215329D01*
X81018900Y-55314824D01*
X81274519Y-55340000D01*
X83425481Y-55340000D01*
X83681100Y-55314824D01*
X84009091Y-55215329D01*
X84311370Y-55053757D01*
X84576319Y-54836319D01*
X84793757Y-54571370D01*
X84955329Y-54269091D01*
X85054824Y-53941100D01*
X85088419Y-53600000D01*
X85054824Y-53258900D01*
X84955329Y-52930909D01*
X84793757Y-52628630D01*
X84576319Y-52363681D01*
X84311370Y-52146243D01*
X84009091Y-51984671D01*
X83681100Y-51885176D01*
X83425481Y-51860000D01*
X81274519Y-51860000D01*
X81018900Y-51885176D01*
X80690909Y-51984671D01*
X80388630Y-52146243D01*
X80123681Y-52363681D01*
X79906243Y-52628630D01*
X79744671Y-52930909D01*
X79645176Y-53258900D01*
X79611581Y-53600000D01*
X76575000Y-53600000D01*
X76575000Y-47610000D01*
X79616372Y-47610000D01*
X79616372Y-49590000D01*
X79630853Y-49737026D01*
X79673739Y-49878401D01*
X79743381Y-50008693D01*
X79837105Y-50122895D01*
X79951307Y-50216619D01*
X80081599Y-50286261D01*
X80222974Y-50329147D01*
X80370000Y-50343628D01*
X84330000Y-50343628D01*
X84477026Y-50329147D01*
X84618401Y-50286261D01*
X84748693Y-50216619D01*
X84862895Y-50122895D01*
X84956619Y-50008693D01*
X85026261Y-49878401D01*
X85069147Y-49737026D01*
X85083628Y-49590000D01*
X85083628Y-47610000D01*
X85069147Y-47462974D01*
X85026261Y-47321599D01*
X85014717Y-47300000D01*
X93946371Y-47300000D01*
X93960852Y-47447026D01*
X94003738Y-47588401D01*
X94073380Y-47718694D01*
X94167104Y-47832896D01*
X94281306Y-47926620D01*
X94411599Y-47996262D01*
X94552974Y-48039148D01*
X94700000Y-48053629D01*
X94875000Y-48050000D01*
X95062500Y-47862500D01*
X95062500Y-46750000D01*
X94137500Y-46750000D01*
X93950000Y-46937500D01*
X93946371Y-47300000D01*
X85014717Y-47300000D01*
X84956619Y-47191307D01*
X84862895Y-47077105D01*
X84748693Y-46983381D01*
X84618401Y-46913739D01*
X84477026Y-46870853D01*
X84330000Y-46856372D01*
X80370000Y-46856372D01*
X80222974Y-46870853D01*
X80081599Y-46913739D01*
X79951307Y-46983381D01*
X79837105Y-47077105D01*
X79743381Y-47191307D01*
X79673739Y-47321599D01*
X79630853Y-47462974D01*
X79616372Y-47610000D01*
X76575000Y-47610000D01*
X76575000Y-45900000D01*
X93946371Y-45900000D01*
X93950000Y-46262500D01*
X94137500Y-46450000D01*
X95062500Y-46450000D01*
X95062500Y-45337500D01*
X94875000Y-45150000D01*
X94700000Y-45146371D01*
X94552974Y-45160852D01*
X94411599Y-45203738D01*
X94281306Y-45273380D01*
X94167104Y-45367104D01*
X94073380Y-45481306D01*
X94003738Y-45611599D01*
X93960852Y-45752974D01*
X93946371Y-45900000D01*
X76575000Y-45900000D01*
X76575000Y-44167500D01*
X93500000Y-44167500D01*
X93513006Y-44287470D01*
X93557888Y-44428224D01*
X93629367Y-44557518D01*
X93724697Y-44670383D01*
X93840214Y-44762481D01*
X93971479Y-44830273D01*
X94113448Y-44871155D01*
X94260663Y-44883554D01*
X94862500Y-44880000D01*
X95050000Y-44692500D01*
X95050000Y-43980000D01*
X93687500Y-43980000D01*
X93500000Y-44167500D01*
X76575000Y-44167500D01*
X76575000Y-29500000D01*
X85184086Y-29500000D01*
X85053919Y-29539486D01*
%TA.AperFunction,Conductor*%
D19*
G36*
X85053919Y-29539486D02*
G01*
X84897568Y-29623057D01*
X84760525Y-29735525D01*
X84732343Y-29769865D01*
X83919861Y-30582347D01*
X83885526Y-30610525D01*
X83857348Y-30644860D01*
X83857345Y-30644863D01*
X83813721Y-30698020D01*
X83690928Y-30735269D01*
X83517414Y-30828014D01*
X83365328Y-30952828D01*
X83240514Y-31104914D01*
X83147769Y-31278428D01*
X83090656Y-31466701D01*
X83071372Y-31662499D01*
X83071372Y-32187501D01*
X83090656Y-32383299D01*
X83147769Y-32571572D01*
X83240514Y-32745086D01*
X83316356Y-32837500D01*
X83240514Y-32929914D01*
X83147769Y-33103428D01*
X83090656Y-33291701D01*
X83071372Y-33487499D01*
X83071372Y-34012501D01*
X83090656Y-34208299D01*
X83147769Y-34396572D01*
X83240514Y-34570086D01*
X83365328Y-34722172D01*
X83517414Y-34846986D01*
X83690928Y-34939731D01*
X83879201Y-34996844D01*
X84074999Y-35016128D01*
X84975001Y-35016128D01*
X85170799Y-34996844D01*
X85359072Y-34939731D01*
X85532586Y-34846986D01*
X85684672Y-34722172D01*
X85743902Y-34650000D01*
X86011664Y-34650000D01*
X86045071Y-34712500D01*
X85978739Y-34836599D01*
X85935853Y-34977974D01*
X85921372Y-35125000D01*
X85921372Y-36025000D01*
X85935853Y-36172026D01*
X85978739Y-36313401D01*
X86048381Y-36443693D01*
X86142105Y-36557895D01*
X86256307Y-36651619D01*
X86386599Y-36721261D01*
X86527974Y-36764147D01*
X86675000Y-36778628D01*
X86959725Y-36778628D01*
X86928739Y-36836599D01*
X86885853Y-36977974D01*
X86871372Y-37125000D01*
X86871372Y-38025000D01*
X86885853Y-38172026D01*
X86928739Y-38313401D01*
X86998381Y-38443693D01*
X87092105Y-38557895D01*
X87206307Y-38651619D01*
X87336599Y-38721261D01*
X87477974Y-38764147D01*
X87625000Y-38778628D01*
X88425000Y-38778628D01*
X88572026Y-38764147D01*
X88713401Y-38721261D01*
X88843693Y-38651619D01*
X88957895Y-38557895D01*
X89025926Y-38475000D01*
X89990109Y-38475000D01*
X90017105Y-38507895D01*
X90100001Y-38575926D01*
X90100001Y-38855784D01*
X90095646Y-38900000D01*
X90113023Y-39076430D01*
X90149926Y-39198082D01*
X89982903Y-39267265D01*
X89778172Y-39404062D01*
X89604062Y-39578172D01*
X89467265Y-39782903D01*
X89373037Y-40010389D01*
X89325000Y-40251886D01*
X89325000Y-40498114D01*
X89373037Y-40739611D01*
X89467265Y-40967097D01*
X89596589Y-41160645D01*
X89454062Y-41303172D01*
X89317265Y-41507903D01*
X89223037Y-41735389D01*
X89175000Y-41976886D01*
X89175000Y-42223114D01*
X89223037Y-42464611D01*
X89317265Y-42692097D01*
X89454062Y-42896828D01*
X89628172Y-43070938D01*
X89832903Y-43207735D01*
X90060389Y-43301963D01*
X90301886Y-43350000D01*
X90548114Y-43350000D01*
X90789611Y-43301963D01*
X91017097Y-43207735D01*
X91221828Y-43070938D01*
X91222626Y-43070140D01*
X91265328Y-43122172D01*
X91417414Y-43246986D01*
X91590928Y-43339731D01*
X91779201Y-43396844D01*
X91974999Y-43416128D01*
X92556873Y-43416128D01*
X92658569Y-43446977D01*
X92835000Y-43464354D01*
X92879207Y-43460000D01*
X93503523Y-43460000D01*
X93500000Y-43492500D01*
X93687500Y-43680000D01*
X95050000Y-43680000D01*
X95050000Y-43660000D01*
X95350000Y-43660000D01*
X95350000Y-43680000D01*
X95370000Y-43680000D01*
X95370000Y-43980000D01*
X95350000Y-43980000D01*
X95350000Y-44692500D01*
X95537500Y-44880000D01*
X96137500Y-44883543D01*
X96137500Y-45270069D01*
X96013401Y-45203738D01*
X95872026Y-45160852D01*
X95725000Y-45146371D01*
X95550000Y-45150000D01*
X95362500Y-45337500D01*
X95362500Y-46450000D01*
X95382500Y-46450000D01*
X95382500Y-46750000D01*
X95362500Y-46750000D01*
X95362500Y-47862500D01*
X95550000Y-48050000D01*
X95725000Y-48053629D01*
X95872026Y-48039148D01*
X96013401Y-47996262D01*
X96143694Y-47926620D01*
X96206224Y-47875303D01*
X96217414Y-47884486D01*
X96390928Y-47977231D01*
X96579201Y-48034344D01*
X96774999Y-48053628D01*
X97300001Y-48053628D01*
X97495799Y-48034344D01*
X97684072Y-47977231D01*
X97857586Y-47884486D01*
X98009672Y-47759672D01*
X98134486Y-47607586D01*
X98227231Y-47434072D01*
X98284344Y-47245799D01*
X98303628Y-47050001D01*
X98303628Y-46149999D01*
X98284344Y-45954201D01*
X98227231Y-45765928D01*
X98134486Y-45592414D01*
X98009672Y-45440328D01*
X97937500Y-45381098D01*
X97937500Y-43335292D01*
X99062491Y-44460283D01*
X99062490Y-48130783D01*
X99058136Y-48174990D01*
X99062490Y-48219196D01*
X99075513Y-48351420D01*
X99126976Y-48521070D01*
X99210547Y-48677421D01*
X99323015Y-48814465D01*
X99357355Y-48842647D01*
X99571372Y-49056664D01*
X99571372Y-49500001D01*
X99590656Y-49695799D01*
X99647769Y-49884072D01*
X99740514Y-50057586D01*
X99865328Y-50209672D01*
X100012286Y-50330278D01*
X99948037Y-50485389D01*
X99900000Y-50726886D01*
X99900000Y-50862564D01*
X99811676Y-50950888D01*
X99778289Y-50978288D01*
X99668945Y-51111524D01*
X99631915Y-51180803D01*
X99587695Y-51263533D01*
X99556277Y-51367104D01*
X99537661Y-51428470D01*
X99534635Y-51459197D01*
X99520767Y-51600000D01*
X99525000Y-51642979D01*
X99525000Y-52044645D01*
X99392414Y-52115514D01*
X99312500Y-52181098D01*
X99232586Y-52115514D01*
X99059072Y-52022769D01*
X98870798Y-51965656D01*
X98675000Y-51946372D01*
X97725000Y-51946372D01*
X97529202Y-51965656D01*
X97340928Y-52022769D01*
X97167414Y-52115514D01*
X97015328Y-52240328D01*
X96966356Y-52300000D01*
X94522793Y-52300000D01*
X93992655Y-51769863D01*
X93964475Y-51735525D01*
X93827432Y-51623057D01*
X93671081Y-51539486D01*
X93501431Y-51488023D01*
X93369207Y-51475000D01*
X93369206Y-51475000D01*
X93325000Y-51470646D01*
X93280794Y-51475000D01*
X92383644Y-51475000D01*
X92334672Y-51415328D01*
X92215658Y-51317655D01*
X92232735Y-51292097D01*
X92326963Y-51064611D01*
X92375000Y-50823114D01*
X92375000Y-50576886D01*
X92326963Y-50335389D01*
X92232735Y-50107903D01*
X92095938Y-49903172D01*
X91921828Y-49729062D01*
X91717097Y-49592265D01*
X91489611Y-49498037D01*
X91248114Y-49450000D01*
X91001886Y-49450000D01*
X90760389Y-49498037D01*
X90532903Y-49592265D01*
X90328172Y-49729062D01*
X90154062Y-49903172D01*
X90017265Y-50107903D01*
X89923037Y-50335389D01*
X89875000Y-50576886D01*
X89875000Y-50823114D01*
X89923037Y-51064611D01*
X90017265Y-51292097D01*
X90052050Y-51344157D01*
X89965328Y-51415328D01*
X89840514Y-51567414D01*
X89747769Y-51740928D01*
X89690656Y-51929202D01*
X89671372Y-52125000D01*
X89671372Y-52625000D01*
X89690656Y-52820798D01*
X89747769Y-53009072D01*
X89840514Y-53182586D01*
X89957390Y-53325000D01*
X89840514Y-53467414D01*
X89747769Y-53640928D01*
X89690656Y-53829202D01*
X89671372Y-54025000D01*
X89671372Y-54525000D01*
X89690656Y-54720798D01*
X89747769Y-54909072D01*
X89840514Y-55082586D01*
X89965328Y-55234672D01*
X90111350Y-55354510D01*
X90042265Y-55457903D01*
X89948037Y-55685389D01*
X89900000Y-55926886D01*
X89900000Y-56173114D01*
X89948037Y-56414611D01*
X90042265Y-56642097D01*
X90179062Y-56846828D01*
X90353172Y-57020938D01*
X90557903Y-57157735D01*
X90785389Y-57251963D01*
X91026886Y-57300000D01*
X91127208Y-57300000D01*
X92107347Y-58280140D01*
X92135525Y-58314475D01*
X92169860Y-58342653D01*
X92169862Y-58342655D01*
X92200413Y-58367727D01*
X92272568Y-58426943D01*
X92428919Y-58510514D01*
X92598569Y-58561977D01*
X92774999Y-58579354D01*
X92819206Y-58575000D01*
X104954117Y-58575000D01*
X104898037Y-58710389D01*
X104850000Y-58951886D01*
X104850000Y-59198114D01*
X104898037Y-59439611D01*
X104992265Y-59667097D01*
X105129062Y-59871828D01*
X105303172Y-60045938D01*
X105477619Y-60162500D01*
X105303172Y-60279062D01*
X105129062Y-60453172D01*
X104992265Y-60657903D01*
X104898037Y-60885389D01*
X104850000Y-61126886D01*
X104850000Y-61373114D01*
X104898037Y-61614611D01*
X104992265Y-61842097D01*
X105129062Y-62046828D01*
X105303172Y-62220938D01*
X105507903Y-62357735D01*
X105735389Y-62451963D01*
X105976886Y-62500000D01*
X106223114Y-62500000D01*
X106464611Y-62451963D01*
X106692097Y-62357735D01*
X106706687Y-62347986D01*
X106777828Y-62434672D01*
X106929914Y-62559486D01*
X107103428Y-62652231D01*
X107291701Y-62709344D01*
X107487499Y-62728628D01*
X108012501Y-62728628D01*
X108208299Y-62709344D01*
X108396572Y-62652231D01*
X108570086Y-62559486D01*
X108662500Y-62483644D01*
X108754914Y-62559486D01*
X108928428Y-62652231D01*
X109116701Y-62709344D01*
X109312499Y-62728628D01*
X109837501Y-62728628D01*
X110033299Y-62709344D01*
X110221572Y-62652231D01*
X110395086Y-62559486D01*
X110547172Y-62434672D01*
X110671986Y-62282586D01*
X110764731Y-62109072D01*
X110821844Y-61920799D01*
X110841128Y-61725001D01*
X110841128Y-60824999D01*
X110821844Y-60629201D01*
X110764731Y-60440928D01*
X110671986Y-60267414D01*
X110596144Y-60175000D01*
X110671986Y-60082586D01*
X110764731Y-59909072D01*
X110821844Y-59720799D01*
X110841128Y-59525001D01*
X110841128Y-58624999D01*
X110821844Y-58429201D01*
X110764731Y-58240928D01*
X110728867Y-58173832D01*
X110810514Y-58021081D01*
X110861977Y-57851431D01*
X110875000Y-57719207D01*
X110875000Y-57719198D01*
X110879353Y-57675001D01*
X110875000Y-57630804D01*
X110875000Y-56019207D01*
X110879354Y-55975000D01*
X110873445Y-55915000D01*
X110861977Y-55798569D01*
X110810514Y-55628919D01*
X110726943Y-55472568D01*
X110614475Y-55335525D01*
X110580130Y-55307339D01*
X110432658Y-55159866D01*
X110404475Y-55125525D01*
X110267432Y-55013057D01*
X110111081Y-54929486D01*
X109941431Y-54878023D01*
X109895429Y-54873492D01*
X109911265Y-54821289D01*
X109928628Y-54645000D01*
X109928628Y-54345000D01*
X109911265Y-54168711D01*
X109870440Y-54034131D01*
X109977432Y-53976943D01*
X110114475Y-53864475D01*
X110142657Y-53830135D01*
X110605136Y-53367656D01*
X110639475Y-53339475D01*
X110751943Y-53202432D01*
X110835514Y-53046081D01*
X110886977Y-52876431D01*
X110900000Y-52744207D01*
X110900000Y-52744205D01*
X110904354Y-52700001D01*
X110900000Y-52655797D01*
X110900000Y-48596242D01*
X110975000Y-48603629D01*
X111137500Y-48600000D01*
X111325000Y-48412500D01*
X111325000Y-47275000D01*
X111305000Y-47275000D01*
X111305000Y-46975000D01*
X111325000Y-46975000D01*
X111325000Y-44775000D01*
X111625000Y-44775000D01*
X111625000Y-46975000D01*
X112537500Y-46975000D01*
X112725000Y-46787500D01*
X112728629Y-46400000D01*
X112714148Y-46252974D01*
X112671262Y-46111599D01*
X112601620Y-45981306D01*
X112514376Y-45875000D01*
X112601620Y-45768694D01*
X112671262Y-45638401D01*
X112714148Y-45497026D01*
X112728629Y-45350000D01*
X112725000Y-44962500D01*
X112537500Y-44775000D01*
X111625000Y-44775000D01*
X111325000Y-44775000D01*
X111305000Y-44775000D01*
X111305000Y-44475000D01*
X111325000Y-44475000D01*
X111325000Y-43337500D01*
X111625000Y-43337500D01*
X111625000Y-44475000D01*
X112537500Y-44475000D01*
X112725000Y-44287500D01*
X112728629Y-43900000D01*
X112714148Y-43752974D01*
X112671262Y-43611599D01*
X112601620Y-43481306D01*
X112507896Y-43367104D01*
X112393694Y-43273380D01*
X112263401Y-43203738D01*
X112122026Y-43160852D01*
X111975000Y-43146371D01*
X111812500Y-43150000D01*
X111625000Y-43337500D01*
X111325000Y-43337500D01*
X111137500Y-43150000D01*
X110975000Y-43146371D01*
X110827974Y-43160852D01*
X110686599Y-43203738D01*
X110556306Y-43273380D01*
X110475000Y-43340107D01*
X110475000Y-41094203D01*
X110479354Y-41049999D01*
X110476857Y-41024649D01*
X114496369Y-45044161D01*
X114478156Y-45104201D01*
X114458872Y-45299999D01*
X114458872Y-45743335D01*
X113184860Y-47017348D01*
X113150526Y-47045525D01*
X113122348Y-47079860D01*
X113122345Y-47079863D01*
X113038057Y-47182569D01*
X112954487Y-47338919D01*
X112903023Y-47508570D01*
X112885646Y-47685000D01*
X112890001Y-47729216D01*
X112890000Y-48361372D01*
X112525560Y-48361372D01*
X112601620Y-48268694D01*
X112671262Y-48138401D01*
X112714148Y-47997026D01*
X112728629Y-47850000D01*
X112725000Y-47462500D01*
X112537500Y-47275000D01*
X111625000Y-47275000D01*
X111625000Y-48412500D01*
X111769799Y-48557299D01*
X111686039Y-48626039D01*
X111573661Y-48762971D01*
X111490157Y-48919197D01*
X111438735Y-49088711D01*
X111421372Y-49265000D01*
X111421372Y-49565000D01*
X111438735Y-49741289D01*
X111490157Y-49910803D01*
X111564559Y-50050000D01*
X111490157Y-50189197D01*
X111438735Y-50358711D01*
X111421372Y-50535000D01*
X111421372Y-50835000D01*
X111438735Y-51011289D01*
X111490157Y-51180803D01*
X111564559Y-51320000D01*
X111490157Y-51459197D01*
X111438735Y-51628711D01*
X111421372Y-51805000D01*
X111421372Y-52105000D01*
X111438735Y-52281289D01*
X111490157Y-52450803D01*
X111534401Y-52533579D01*
X111482810Y-52626957D01*
X111437965Y-52767723D01*
X111425000Y-52887500D01*
X111612500Y-53075000D01*
X113000000Y-53075000D01*
X113000000Y-53055000D01*
X113300000Y-53055000D01*
X113300000Y-53075000D01*
X114687500Y-53075000D01*
X114875000Y-52887500D01*
X114871482Y-52855000D01*
X114897011Y-52855000D01*
X115010389Y-52901963D01*
X115251886Y-52950000D01*
X115498114Y-52950000D01*
X115739611Y-52901963D01*
X115967097Y-52807735D01*
X115973897Y-52803191D01*
X115971371Y-52925000D01*
X115985852Y-53072026D01*
X116028738Y-53213401D01*
X116098380Y-53343694D01*
X116149697Y-53406224D01*
X116140514Y-53417414D01*
X116129926Y-53437223D01*
X115914611Y-53348037D01*
X115673114Y-53300000D01*
X115426886Y-53300000D01*
X115185389Y-53348037D01*
X114957903Y-53442265D01*
X114836131Y-53523631D01*
X114687500Y-53375000D01*
X113300000Y-53375000D01*
X113300000Y-53395000D01*
X113000000Y-53395000D01*
X113000000Y-53375000D01*
X111612500Y-53375000D01*
X111425000Y-53562500D01*
X111437965Y-53682277D01*
X111482810Y-53823043D01*
X111534401Y-53916421D01*
X111490157Y-53999197D01*
X111438735Y-54168711D01*
X111421372Y-54345000D01*
X111421372Y-54645000D01*
X111438735Y-54821289D01*
X111490157Y-54990803D01*
X111564559Y-55130000D01*
X111490157Y-55269197D01*
X111438735Y-55438711D01*
X111421372Y-55615000D01*
X111421372Y-55915000D01*
X111438735Y-56091289D01*
X111490157Y-56260803D01*
X111564559Y-56400000D01*
X111490157Y-56539197D01*
X111438735Y-56708711D01*
X111421372Y-56885000D01*
X111421372Y-57185000D01*
X111438735Y-57361289D01*
X111490157Y-57530803D01*
X111573661Y-57687029D01*
X111686039Y-57823961D01*
X111822971Y-57936339D01*
X111979197Y-58019843D01*
X112148711Y-58071265D01*
X112325000Y-58088628D01*
X112489313Y-58088628D01*
X112510525Y-58114475D01*
X112544866Y-58142658D01*
X112994839Y-58592630D01*
X113023025Y-58626975D01*
X113160068Y-58739443D01*
X113316419Y-58823014D01*
X113486069Y-58874477D01*
X113618293Y-58887500D01*
X113618302Y-58887500D01*
X113662499Y-58891853D01*
X113706696Y-58887500D01*
X116206098Y-58887500D01*
X116265328Y-58959672D01*
X116417414Y-59084486D01*
X116590928Y-59177231D01*
X116779201Y-59234344D01*
X116974999Y-59253628D01*
X117875001Y-59253628D01*
X118070799Y-59234344D01*
X118259072Y-59177231D01*
X118432586Y-59084486D01*
X118584672Y-58959672D01*
X118643857Y-58887555D01*
X118687500Y-58891854D01*
X118731706Y-58887500D01*
X118731707Y-58887500D01*
X118863931Y-58874477D01*
X119033581Y-58823014D01*
X119189932Y-58739443D01*
X119326975Y-58626975D01*
X119355158Y-58592634D01*
X119755131Y-58192660D01*
X119789475Y-58164475D01*
X119901943Y-58027432D01*
X119985514Y-57871081D01*
X120036977Y-57701431D01*
X120050000Y-57569207D01*
X120050000Y-57569206D01*
X120054354Y-57525000D01*
X120050000Y-57480793D01*
X120050000Y-44469207D01*
X120054354Y-44425000D01*
X120036977Y-44248569D01*
X119985514Y-44078918D01*
X119901943Y-43922568D01*
X119861310Y-43873057D01*
X119789475Y-43785525D01*
X119755135Y-43757343D01*
X113642657Y-37644865D01*
X113614475Y-37610525D01*
X113477432Y-37498057D01*
X113321081Y-37414486D01*
X113151431Y-37363023D01*
X113019207Y-37350000D01*
X113019206Y-37350000D01*
X112975000Y-37345646D01*
X112930794Y-37350000D01*
X112167766Y-37350000D01*
X112096828Y-37279062D01*
X111892097Y-37142265D01*
X111664611Y-37048037D01*
X111423114Y-37000000D01*
X111176886Y-37000000D01*
X110935389Y-37048037D01*
X110707903Y-37142265D01*
X110503172Y-37279062D01*
X110329062Y-37453172D01*
X110192265Y-37657903D01*
X110098037Y-37885389D01*
X110062390Y-38064598D01*
X109975249Y-37977457D01*
X109951963Y-37860389D01*
X109857735Y-37632903D01*
X109720938Y-37428172D01*
X109546828Y-37254062D01*
X109342097Y-37117265D01*
X109114611Y-37023037D01*
X108873114Y-36975000D01*
X108626886Y-36975000D01*
X108385389Y-37023037D01*
X108157903Y-37117265D01*
X107953172Y-37254062D01*
X107779062Y-37428172D01*
X107642265Y-37632903D01*
X107580298Y-37782505D01*
X105450000Y-35652208D01*
X105450000Y-35167414D01*
X107140000Y-35167414D01*
X107140000Y-35482586D01*
X107201487Y-35791703D01*
X107322098Y-36082884D01*
X107497199Y-36344941D01*
X107720059Y-36567801D01*
X107982116Y-36742902D01*
X108273297Y-36863513D01*
X108582414Y-36925000D01*
X108897586Y-36925000D01*
X109206703Y-36863513D01*
X109497884Y-36742902D01*
X109759941Y-36567801D01*
X109982801Y-36344941D01*
X110010000Y-36304235D01*
X110037199Y-36344941D01*
X110260059Y-36567801D01*
X110522116Y-36742902D01*
X110813297Y-36863513D01*
X111122414Y-36925000D01*
X111437586Y-36925000D01*
X111746703Y-36863513D01*
X112037884Y-36742902D01*
X112299941Y-36567801D01*
X112522801Y-36344941D01*
X112550000Y-36304235D01*
X112577199Y-36344941D01*
X112800059Y-36567801D01*
X113062116Y-36742902D01*
X113353297Y-36863513D01*
X113662414Y-36925000D01*
X113977586Y-36925000D01*
X114286703Y-36863513D01*
X114577884Y-36742902D01*
X114839941Y-36567801D01*
X115062801Y-36344941D01*
X115093198Y-36299448D01*
X115292075Y-36516450D01*
X115545035Y-36701898D01*
X115829314Y-36834433D01*
X115962654Y-36874876D01*
X116210000Y-36729513D01*
X116210000Y-35475000D01*
X116190000Y-35475000D01*
X116190000Y-35175000D01*
X116210000Y-35175000D01*
X116210000Y-33920487D01*
X116510000Y-33920487D01*
X116510000Y-35175000D01*
X116530000Y-35175000D01*
X116530000Y-35475000D01*
X116510000Y-35475000D01*
X116510000Y-36729513D01*
X116757346Y-36874876D01*
X116890686Y-36834433D01*
X117174965Y-36701898D01*
X117394997Y-36540590D01*
X117423381Y-36593693D01*
X117517105Y-36707895D01*
X117631307Y-36801619D01*
X117761599Y-36871261D01*
X117902974Y-36914147D01*
X118050000Y-36928628D01*
X119750000Y-36928628D01*
X119897026Y-36914147D01*
X120038401Y-36871261D01*
X120168693Y-36801619D01*
X120282895Y-36707895D01*
X120376619Y-36593693D01*
X120446261Y-36463401D01*
X120489147Y-36322026D01*
X120503628Y-36175000D01*
X120503628Y-34475000D01*
X120489147Y-34327974D01*
X120446261Y-34186599D01*
X120376619Y-34056307D01*
X120282895Y-33942105D01*
X120168693Y-33848381D01*
X120038401Y-33778739D01*
X119897026Y-33735853D01*
X119750000Y-33721372D01*
X118050000Y-33721372D01*
X117902974Y-33735853D01*
X117761599Y-33778739D01*
X117631307Y-33848381D01*
X117517105Y-33942105D01*
X117423381Y-34056307D01*
X117394997Y-34109410D01*
X117174965Y-33948102D01*
X116890686Y-33815567D01*
X116757346Y-33775124D01*
X116510000Y-33920487D01*
X116210000Y-33920487D01*
X115962654Y-33775124D01*
X115829314Y-33815567D01*
X115545035Y-33948102D01*
X115292075Y-34133550D01*
X115093198Y-34350552D01*
X115062801Y-34305059D01*
X114839941Y-34082199D01*
X114577884Y-33907098D01*
X114286703Y-33786487D01*
X113977586Y-33725000D01*
X113662414Y-33725000D01*
X113353297Y-33786487D01*
X113062116Y-33907098D01*
X112800059Y-34082199D01*
X112577199Y-34305059D01*
X112550000Y-34345765D01*
X112522801Y-34305059D01*
X112299941Y-34082199D01*
X112037884Y-33907098D01*
X111746703Y-33786487D01*
X111437586Y-33725000D01*
X111122414Y-33725000D01*
X110813297Y-33786487D01*
X110522116Y-33907098D01*
X110260059Y-34082199D01*
X110037199Y-34305059D01*
X110010000Y-34345765D01*
X109982801Y-34305059D01*
X109759941Y-34082199D01*
X109497884Y-33907098D01*
X109206703Y-33786487D01*
X108897586Y-33725000D01*
X108582414Y-33725000D01*
X108273297Y-33786487D01*
X107982116Y-33907098D01*
X107720059Y-34082199D01*
X107497199Y-34305059D01*
X107322098Y-34567116D01*
X107201487Y-34858297D01*
X107140000Y-35167414D01*
X105450000Y-35167414D01*
X105450000Y-34667766D01*
X105520938Y-34596828D01*
X105657735Y-34392097D01*
X105751963Y-34164611D01*
X105800000Y-33923114D01*
X105800000Y-33676886D01*
X105751963Y-33435389D01*
X105657735Y-33207903D01*
X105520938Y-33003172D01*
X105346828Y-32829062D01*
X105142097Y-32692265D01*
X104914611Y-32598037D01*
X104673114Y-32550000D01*
X104426886Y-32550000D01*
X104185389Y-32598037D01*
X103957903Y-32692265D01*
X103753172Y-32829062D01*
X103721177Y-32861057D01*
X103684486Y-32792414D01*
X103559672Y-32640328D01*
X103500000Y-32591356D01*
X103500000Y-31444206D01*
X103504354Y-31400000D01*
X103486977Y-31223569D01*
X103464660Y-31150000D01*
X103435514Y-31053919D01*
X103351943Y-30897568D01*
X103239475Y-30760525D01*
X103205136Y-30732344D01*
X102242657Y-29769865D01*
X102214475Y-29735525D01*
X102077432Y-29623057D01*
X101921081Y-29539486D01*
X101790914Y-29500000D01*
X121800000Y-29500000D01*
X121800001Y-63975000D01*
X76575000Y-63975000D01*
X76575000Y-59019336D01*
X79671286Y-59019336D01*
X79695047Y-59127287D01*
X79829907Y-59441972D01*
X80023568Y-59724300D01*
X80268587Y-59963422D01*
X80555549Y-60150148D01*
X80873425Y-60277303D01*
X81210000Y-60340000D01*
X82200000Y-60340000D01*
X82200000Y-58750000D01*
X82500000Y-58750000D01*
X82500000Y-60340000D01*
X83490000Y-60340000D01*
X83826575Y-60277303D01*
X84144451Y-60150148D01*
X84431413Y-59963422D01*
X84676432Y-59724300D01*
X84870093Y-59441972D01*
X85004953Y-59127287D01*
X85028714Y-59019336D01*
X84885237Y-58750000D01*
X82500000Y-58750000D01*
X82200000Y-58750000D01*
X79814763Y-58750000D01*
X79671286Y-59019336D01*
X76575000Y-59019336D01*
X76575000Y-58180664D01*
X79671286Y-58180664D01*
X79814763Y-58450000D01*
X82200000Y-58450000D01*
X82200000Y-56860000D01*
X82500000Y-56860000D01*
X82500000Y-58450000D01*
X84885237Y-58450000D01*
X85028714Y-58180664D01*
X85004953Y-58072713D01*
X84870093Y-57758028D01*
X84676432Y-57475700D01*
X84431413Y-57236578D01*
X84144451Y-57049852D01*
X83826575Y-56922697D01*
X83490000Y-56860000D01*
X82500000Y-56860000D01*
X82200000Y-56860000D01*
X81210000Y-56860000D01*
X80873425Y-56922697D01*
X80555549Y-57049852D01*
X80268587Y-57236578D01*
X80023568Y-57475700D01*
X79829907Y-57758028D01*
X79695047Y-58072713D01*
X79671286Y-58180664D01*
X76575000Y-58180664D01*
X76575000Y-53600000D01*
X79611581Y-53600000D01*
X79645176Y-53941100D01*
X79744671Y-54269091D01*
X79906243Y-54571370D01*
X80123681Y-54836319D01*
X80388630Y-55053757D01*
X80690909Y-55215329D01*
X81018900Y-55314824D01*
X81274519Y-55340000D01*
X83425481Y-55340000D01*
X83681100Y-55314824D01*
X84009091Y-55215329D01*
X84311370Y-55053757D01*
X84576319Y-54836319D01*
X84793757Y-54571370D01*
X84955329Y-54269091D01*
X85054824Y-53941100D01*
X85088419Y-53600000D01*
X85054824Y-53258900D01*
X84955329Y-52930909D01*
X84793757Y-52628630D01*
X84576319Y-52363681D01*
X84311370Y-52146243D01*
X84009091Y-51984671D01*
X83681100Y-51885176D01*
X83425481Y-51860000D01*
X81274519Y-51860000D01*
X81018900Y-51885176D01*
X80690909Y-51984671D01*
X80388630Y-52146243D01*
X80123681Y-52363681D01*
X79906243Y-52628630D01*
X79744671Y-52930909D01*
X79645176Y-53258900D01*
X79611581Y-53600000D01*
X76575000Y-53600000D01*
X76575000Y-47610000D01*
X79616372Y-47610000D01*
X79616372Y-49590000D01*
X79630853Y-49737026D01*
X79673739Y-49878401D01*
X79743381Y-50008693D01*
X79837105Y-50122895D01*
X79951307Y-50216619D01*
X80081599Y-50286261D01*
X80222974Y-50329147D01*
X80370000Y-50343628D01*
X84330000Y-50343628D01*
X84477026Y-50329147D01*
X84618401Y-50286261D01*
X84748693Y-50216619D01*
X84862895Y-50122895D01*
X84956619Y-50008693D01*
X85026261Y-49878401D01*
X85069147Y-49737026D01*
X85083628Y-49590000D01*
X85083628Y-47610000D01*
X85069147Y-47462974D01*
X85026261Y-47321599D01*
X85014717Y-47300000D01*
X93946371Y-47300000D01*
X93960852Y-47447026D01*
X94003738Y-47588401D01*
X94073380Y-47718694D01*
X94167104Y-47832896D01*
X94281306Y-47926620D01*
X94411599Y-47996262D01*
X94552974Y-48039148D01*
X94700000Y-48053629D01*
X94875000Y-48050000D01*
X95062500Y-47862500D01*
X95062500Y-46750000D01*
X94137500Y-46750000D01*
X93950000Y-46937500D01*
X93946371Y-47300000D01*
X85014717Y-47300000D01*
X84956619Y-47191307D01*
X84862895Y-47077105D01*
X84748693Y-46983381D01*
X84618401Y-46913739D01*
X84477026Y-46870853D01*
X84330000Y-46856372D01*
X80370000Y-46856372D01*
X80222974Y-46870853D01*
X80081599Y-46913739D01*
X79951307Y-46983381D01*
X79837105Y-47077105D01*
X79743381Y-47191307D01*
X79673739Y-47321599D01*
X79630853Y-47462974D01*
X79616372Y-47610000D01*
X76575000Y-47610000D01*
X76575000Y-45900000D01*
X93946371Y-45900000D01*
X93950000Y-46262500D01*
X94137500Y-46450000D01*
X95062500Y-46450000D01*
X95062500Y-45337500D01*
X94875000Y-45150000D01*
X94700000Y-45146371D01*
X94552974Y-45160852D01*
X94411599Y-45203738D01*
X94281306Y-45273380D01*
X94167104Y-45367104D01*
X94073380Y-45481306D01*
X94003738Y-45611599D01*
X93960852Y-45752974D01*
X93946371Y-45900000D01*
X76575000Y-45900000D01*
X76575000Y-44167500D01*
X93500000Y-44167500D01*
X93513006Y-44287470D01*
X93557888Y-44428224D01*
X93629367Y-44557518D01*
X93724697Y-44670383D01*
X93840214Y-44762481D01*
X93971479Y-44830273D01*
X94113448Y-44871155D01*
X94260663Y-44883554D01*
X94862500Y-44880000D01*
X95050000Y-44692500D01*
X95050000Y-43980000D01*
X93687500Y-43980000D01*
X93500000Y-44167500D01*
X76575000Y-44167500D01*
X76575000Y-29500000D01*
X85184086Y-29500000D01*
X85053919Y-29539486D01*
G37*
%TD.AperFunction*%
D17*
X104950000Y-54875000D02*
X104970000Y-54875000D01*
X104970000Y-55175000D01*
X104950000Y-55175000D01*
X104950000Y-56100000D01*
X105137500Y-56287500D01*
X105350000Y-56289627D01*
X105350000Y-56377208D01*
X104952208Y-56775000D01*
X103794788Y-56775000D01*
X103825000Y-56623114D01*
X103825000Y-56376886D01*
X103794738Y-56224750D01*
X103811599Y-56233762D01*
X103952974Y-56276648D01*
X104100000Y-56291129D01*
X104462500Y-56287500D01*
X104650000Y-56100000D01*
X104650000Y-55175000D01*
X104630000Y-55175000D01*
X104630000Y-54875000D01*
X104650000Y-54875000D01*
X104650000Y-54855000D01*
X104950000Y-54855000D01*
X104950000Y-54875000D01*
%TA.AperFunction,Conductor*%
D19*
G36*
X104950000Y-54875000D02*
G01*
X104970000Y-54875000D01*
X104970000Y-55175000D01*
X104950000Y-55175000D01*
X104950000Y-56100000D01*
X105137500Y-56287500D01*
X105350000Y-56289627D01*
X105350000Y-56377208D01*
X104952208Y-56775000D01*
X103794788Y-56775000D01*
X103825000Y-56623114D01*
X103825000Y-56376886D01*
X103794738Y-56224750D01*
X103811599Y-56233762D01*
X103952974Y-56276648D01*
X104100000Y-56291129D01*
X104462500Y-56287500D01*
X104650000Y-56100000D01*
X104650000Y-55175000D01*
X104630000Y-55175000D01*
X104630000Y-54875000D01*
X104650000Y-54875000D01*
X104650000Y-54855000D01*
X104950000Y-54855000D01*
X104950000Y-54875000D01*
G37*
%TD.AperFunction*%
D17*
X117600000Y-50050000D02*
X117620000Y-50050000D01*
X117620000Y-50350000D01*
X117600000Y-50350000D01*
X117600000Y-51275000D01*
X117618750Y-51293750D01*
X117575000Y-51337500D01*
X117575000Y-52262500D01*
X117595000Y-52262500D01*
X117595000Y-52562500D01*
X117575000Y-52562500D01*
X117575000Y-52582500D01*
X117275000Y-52582500D01*
X117275000Y-52562500D01*
X117255000Y-52562500D01*
X117255000Y-52262500D01*
X117275000Y-52262500D01*
X117275000Y-51337500D01*
X117256250Y-51318750D01*
X117300000Y-51275000D01*
X117300000Y-50350000D01*
X117280000Y-50350000D01*
X117280000Y-50050000D01*
X117300000Y-50050000D01*
X117300000Y-50030000D01*
X117600000Y-50030000D01*
X117600000Y-50050000D01*
%TA.AperFunction,Conductor*%
D19*
G36*
X117600000Y-50050000D02*
G01*
X117620000Y-50050000D01*
X117620000Y-50350000D01*
X117600000Y-50350000D01*
X117600000Y-51275000D01*
X117618750Y-51293750D01*
X117575000Y-51337500D01*
X117575000Y-52262500D01*
X117595000Y-52262500D01*
X117595000Y-52562500D01*
X117575000Y-52562500D01*
X117575000Y-52582500D01*
X117275000Y-52582500D01*
X117275000Y-52562500D01*
X117255000Y-52562500D01*
X117255000Y-52262500D01*
X117275000Y-52262500D01*
X117275000Y-51337500D01*
X117256250Y-51318750D01*
X117300000Y-51275000D01*
X117300000Y-50350000D01*
X117280000Y-50350000D01*
X117280000Y-50050000D01*
X117300000Y-50050000D01*
X117300000Y-50030000D01*
X117600000Y-50030000D01*
X117600000Y-50050000D01*
G37*
%TD.AperFunction*%
D17*
X101700000Y-31772792D02*
X101700000Y-32540107D01*
X101618694Y-32473380D01*
X101488401Y-32403738D01*
X101347026Y-32360852D01*
X101200000Y-32346371D01*
X101037500Y-32350000D01*
X100850000Y-32537500D01*
X100850000Y-33675000D01*
X100870000Y-33675000D01*
X100870000Y-33975000D01*
X100850000Y-33975000D01*
X100850000Y-35112500D01*
X100900000Y-35162500D01*
X100850000Y-35212500D01*
X100850000Y-36350000D01*
X100870000Y-36350000D01*
X100870000Y-36650000D01*
X100850000Y-36650000D01*
X100850000Y-37787500D01*
X101037500Y-37975000D01*
X101200000Y-37978629D01*
X101347026Y-37964148D01*
X101488401Y-37921262D01*
X101618694Y-37851620D01*
X101700000Y-37784893D01*
X101700001Y-38966372D01*
X101400000Y-38966372D01*
X101223711Y-38983735D01*
X101054197Y-39035157D01*
X100897971Y-39118661D01*
X100761039Y-39231039D01*
X100648661Y-39367971D01*
X100565157Y-39524197D01*
X100513735Y-39693711D01*
X100496372Y-39870000D01*
X100496372Y-40170000D01*
X100513735Y-40346289D01*
X100565157Y-40515803D01*
X100639559Y-40655000D01*
X100565157Y-40794197D01*
X100513735Y-40963711D01*
X100496372Y-41140000D01*
X100496372Y-41440000D01*
X100513735Y-41616289D01*
X100565157Y-41785803D01*
X100639559Y-41925000D01*
X100565157Y-42064197D01*
X100513735Y-42233711D01*
X100496372Y-42410000D01*
X100496372Y-42710000D01*
X100513735Y-42886289D01*
X100565157Y-43055803D01*
X100639559Y-43195000D01*
X100565157Y-43334197D01*
X100545800Y-43398008D01*
X98750010Y-41602218D01*
X98750010Y-39297782D01*
X98980145Y-39067647D01*
X99014474Y-39039474D01*
X99042647Y-39005145D01*
X99042655Y-39005137D01*
X99126943Y-38902432D01*
X99210513Y-38746082D01*
X99261977Y-38576431D01*
X99279354Y-38400000D01*
X99261977Y-38223570D01*
X99249990Y-38184055D01*
X99249990Y-37225000D01*
X99446371Y-37225000D01*
X99460852Y-37372026D01*
X99503738Y-37513401D01*
X99573380Y-37643694D01*
X99667104Y-37757896D01*
X99781306Y-37851620D01*
X99911599Y-37921262D01*
X100052974Y-37964148D01*
X100200000Y-37978629D01*
X100362500Y-37975000D01*
X100550000Y-37787500D01*
X100550000Y-36650000D01*
X99637500Y-36650000D01*
X99450000Y-36837500D01*
X99446371Y-37225000D01*
X99249990Y-37225000D01*
X99249990Y-35844197D01*
X99254344Y-35799990D01*
X99236967Y-35623559D01*
X99185504Y-35453909D01*
X99101933Y-35297558D01*
X98989465Y-35160515D01*
X98955121Y-35132329D01*
X98817658Y-34994867D01*
X98789475Y-34960525D01*
X98652432Y-34848057D01*
X98496081Y-34764486D01*
X98326431Y-34713023D01*
X98194207Y-34700000D01*
X98194206Y-34700000D01*
X98150000Y-34695646D01*
X98105794Y-34700000D01*
X95744207Y-34700000D01*
X95700000Y-34695646D01*
X95655793Y-34700000D01*
X95523569Y-34713023D01*
X95353919Y-34764486D01*
X95197568Y-34848057D01*
X95060525Y-34960525D01*
X95032339Y-34994870D01*
X94557366Y-35469842D01*
X94523025Y-35498025D01*
X94410557Y-35635069D01*
X94326986Y-35791420D01*
X94296926Y-35890514D01*
X94281848Y-35940219D01*
X94190328Y-36015328D01*
X94175591Y-36033284D01*
X94146262Y-35936599D01*
X94076620Y-35806306D01*
X93982896Y-35692104D01*
X93868694Y-35598380D01*
X93738401Y-35528738D01*
X93597026Y-35485852D01*
X93450000Y-35471371D01*
X93337500Y-35475000D01*
X93150000Y-35662500D01*
X93150000Y-36475000D01*
X93170000Y-36475000D01*
X93170000Y-36775000D01*
X93150000Y-36775000D01*
X93150000Y-37587500D01*
X93337500Y-37775000D01*
X93450000Y-37778629D01*
X93597026Y-37764148D01*
X93738401Y-37721262D01*
X93868694Y-37651620D01*
X93896728Y-37628613D01*
X93915656Y-37820799D01*
X93972769Y-38009072D01*
X94065514Y-38182586D01*
X94190328Y-38334672D01*
X94262500Y-38393903D01*
X94262501Y-38979915D01*
X94223711Y-38983735D01*
X94054197Y-39035157D01*
X93897971Y-39118661D01*
X93761039Y-39231039D01*
X93648661Y-39367971D01*
X93628324Y-39406018D01*
X93584672Y-39352828D01*
X93432586Y-39228014D01*
X93259072Y-39135269D01*
X93070799Y-39078156D01*
X92875001Y-39058872D01*
X92431664Y-39058872D01*
X91926758Y-38553966D01*
X91982895Y-38507895D01*
X92076619Y-38393693D01*
X92146261Y-38263401D01*
X92189147Y-38122026D01*
X92203628Y-37975000D01*
X92203628Y-37690276D01*
X92261599Y-37721262D01*
X92402974Y-37764148D01*
X92550000Y-37778629D01*
X92662500Y-37775000D01*
X92850000Y-37587500D01*
X92850000Y-36775000D01*
X92830000Y-36775000D01*
X92830000Y-36475000D01*
X92850000Y-36475000D01*
X92850000Y-35662500D01*
X92662500Y-35475000D01*
X92550000Y-35471371D01*
X92402974Y-35485852D01*
X92261599Y-35528738D01*
X92203628Y-35559724D01*
X92203628Y-35275000D01*
X92189147Y-35127974D01*
X92146261Y-34986599D01*
X92076619Y-34856307D01*
X91982895Y-34742105D01*
X91868693Y-34648381D01*
X91738401Y-34578739D01*
X91643663Y-34550000D01*
X99446371Y-34550000D01*
X99460852Y-34697026D01*
X99503738Y-34838401D01*
X99573380Y-34968694D01*
X99667104Y-35082896D01*
X99764101Y-35162500D01*
X99667104Y-35242104D01*
X99573380Y-35356306D01*
X99503738Y-35486599D01*
X99460852Y-35627974D01*
X99446371Y-35775000D01*
X99450000Y-36162500D01*
X99637500Y-36350000D01*
X100550000Y-36350000D01*
X100550000Y-35212500D01*
X100500000Y-35162500D01*
X100550000Y-35112500D01*
X100550000Y-33975000D01*
X99637500Y-33975000D01*
X99450000Y-34162500D01*
X99446371Y-34550000D01*
X91643663Y-34550000D01*
X91597026Y-34535853D01*
X91587843Y-34534949D01*
X91630137Y-34492655D01*
X91664475Y-34464475D01*
X91776943Y-34327432D01*
X91840621Y-34208299D01*
X91860514Y-34171082D01*
X91911977Y-34001431D01*
X91929354Y-33825000D01*
X91925000Y-33780793D01*
X91925000Y-33179931D01*
X92049099Y-33246262D01*
X92190474Y-33289148D01*
X92337500Y-33303629D01*
X92512500Y-33300000D01*
X92700000Y-33112500D01*
X92700000Y-32000000D01*
X93000000Y-32000000D01*
X93000000Y-33112500D01*
X93187500Y-33300000D01*
X93362500Y-33303629D01*
X93509526Y-33289148D01*
X93650901Y-33246262D01*
X93781194Y-33176620D01*
X93874554Y-33100000D01*
X99446371Y-33100000D01*
X99450000Y-33487500D01*
X99637500Y-33675000D01*
X100550000Y-33675000D01*
X100550000Y-32537500D01*
X100362500Y-32350000D01*
X100200000Y-32346371D01*
X100052974Y-32360852D01*
X99911599Y-32403738D01*
X99781306Y-32473380D01*
X99667104Y-32567104D01*
X99573380Y-32681306D01*
X99503738Y-32811599D01*
X99460852Y-32952974D01*
X99446371Y-33100000D01*
X93874554Y-33100000D01*
X93895396Y-33082896D01*
X93989120Y-32968694D01*
X94058762Y-32838401D01*
X94101648Y-32697026D01*
X94116129Y-32550000D01*
X94112500Y-32187500D01*
X93925000Y-32000000D01*
X93000000Y-32000000D01*
X92700000Y-32000000D01*
X92680000Y-32000000D01*
X92680000Y-31700000D01*
X92700000Y-31700000D01*
X92700000Y-31680000D01*
X93000000Y-31680000D01*
X93000000Y-31700000D01*
X93925000Y-31700000D01*
X94112500Y-31512500D01*
X94114878Y-31275000D01*
X101202208Y-31275000D01*
X101700000Y-31772792D01*
%TA.AperFunction,Conductor*%
D19*
G36*
X101700000Y-31772792D02*
G01*
X101700000Y-32540107D01*
X101618694Y-32473380D01*
X101488401Y-32403738D01*
X101347026Y-32360852D01*
X101200000Y-32346371D01*
X101037500Y-32350000D01*
X100850000Y-32537500D01*
X100850000Y-33675000D01*
X100870000Y-33675000D01*
X100870000Y-33975000D01*
X100850000Y-33975000D01*
X100850000Y-35112500D01*
X100900000Y-35162500D01*
X100850000Y-35212500D01*
X100850000Y-36350000D01*
X100870000Y-36350000D01*
X100870000Y-36650000D01*
X100850000Y-36650000D01*
X100850000Y-37787500D01*
X101037500Y-37975000D01*
X101200000Y-37978629D01*
X101347026Y-37964148D01*
X101488401Y-37921262D01*
X101618694Y-37851620D01*
X101700000Y-37784893D01*
X101700001Y-38966372D01*
X101400000Y-38966372D01*
X101223711Y-38983735D01*
X101054197Y-39035157D01*
X100897971Y-39118661D01*
X100761039Y-39231039D01*
X100648661Y-39367971D01*
X100565157Y-39524197D01*
X100513735Y-39693711D01*
X100496372Y-39870000D01*
X100496372Y-40170000D01*
X100513735Y-40346289D01*
X100565157Y-40515803D01*
X100639559Y-40655000D01*
X100565157Y-40794197D01*
X100513735Y-40963711D01*
X100496372Y-41140000D01*
X100496372Y-41440000D01*
X100513735Y-41616289D01*
X100565157Y-41785803D01*
X100639559Y-41925000D01*
X100565157Y-42064197D01*
X100513735Y-42233711D01*
X100496372Y-42410000D01*
X100496372Y-42710000D01*
X100513735Y-42886289D01*
X100565157Y-43055803D01*
X100639559Y-43195000D01*
X100565157Y-43334197D01*
X100545800Y-43398008D01*
X98750010Y-41602218D01*
X98750010Y-39297782D01*
X98980145Y-39067647D01*
X99014474Y-39039474D01*
X99042647Y-39005145D01*
X99042655Y-39005137D01*
X99126943Y-38902432D01*
X99210513Y-38746082D01*
X99261977Y-38576431D01*
X99279354Y-38400000D01*
X99261977Y-38223570D01*
X99249990Y-38184055D01*
X99249990Y-37225000D01*
X99446371Y-37225000D01*
X99460852Y-37372026D01*
X99503738Y-37513401D01*
X99573380Y-37643694D01*
X99667104Y-37757896D01*
X99781306Y-37851620D01*
X99911599Y-37921262D01*
X100052974Y-37964148D01*
X100200000Y-37978629D01*
X100362500Y-37975000D01*
X100550000Y-37787500D01*
X100550000Y-36650000D01*
X99637500Y-36650000D01*
X99450000Y-36837500D01*
X99446371Y-37225000D01*
X99249990Y-37225000D01*
X99249990Y-35844197D01*
X99254344Y-35799990D01*
X99236967Y-35623559D01*
X99185504Y-35453909D01*
X99101933Y-35297558D01*
X98989465Y-35160515D01*
X98955121Y-35132329D01*
X98817658Y-34994867D01*
X98789475Y-34960525D01*
X98652432Y-34848057D01*
X98496081Y-34764486D01*
X98326431Y-34713023D01*
X98194207Y-34700000D01*
X98194206Y-34700000D01*
X98150000Y-34695646D01*
X98105794Y-34700000D01*
X95744207Y-34700000D01*
X95700000Y-34695646D01*
X95655793Y-34700000D01*
X95523569Y-34713023D01*
X95353919Y-34764486D01*
X95197568Y-34848057D01*
X95060525Y-34960525D01*
X95032339Y-34994870D01*
X94557366Y-35469842D01*
X94523025Y-35498025D01*
X94410557Y-35635069D01*
X94326986Y-35791420D01*
X94296926Y-35890514D01*
X94281848Y-35940219D01*
X94190328Y-36015328D01*
X94175591Y-36033284D01*
X94146262Y-35936599D01*
X94076620Y-35806306D01*
X93982896Y-35692104D01*
X93868694Y-35598380D01*
X93738401Y-35528738D01*
X93597026Y-35485852D01*
X93450000Y-35471371D01*
X93337500Y-35475000D01*
X93150000Y-35662500D01*
X93150000Y-36475000D01*
X93170000Y-36475000D01*
X93170000Y-36775000D01*
X93150000Y-36775000D01*
X93150000Y-37587500D01*
X93337500Y-37775000D01*
X93450000Y-37778629D01*
X93597026Y-37764148D01*
X93738401Y-37721262D01*
X93868694Y-37651620D01*
X93896728Y-37628613D01*
X93915656Y-37820799D01*
X93972769Y-38009072D01*
X94065514Y-38182586D01*
X94190328Y-38334672D01*
X94262500Y-38393903D01*
X94262501Y-38979915D01*
X94223711Y-38983735D01*
X94054197Y-39035157D01*
X93897971Y-39118661D01*
X93761039Y-39231039D01*
X93648661Y-39367971D01*
X93628324Y-39406018D01*
X93584672Y-39352828D01*
X93432586Y-39228014D01*
X93259072Y-39135269D01*
X93070799Y-39078156D01*
X92875001Y-39058872D01*
X92431664Y-39058872D01*
X91926758Y-38553966D01*
X91982895Y-38507895D01*
X92076619Y-38393693D01*
X92146261Y-38263401D01*
X92189147Y-38122026D01*
X92203628Y-37975000D01*
X92203628Y-37690276D01*
X92261599Y-37721262D01*
X92402974Y-37764148D01*
X92550000Y-37778629D01*
X92662500Y-37775000D01*
X92850000Y-37587500D01*
X92850000Y-36775000D01*
X92830000Y-36775000D01*
X92830000Y-36475000D01*
X92850000Y-36475000D01*
X92850000Y-35662500D01*
X92662500Y-35475000D01*
X92550000Y-35471371D01*
X92402974Y-35485852D01*
X92261599Y-35528738D01*
X92203628Y-35559724D01*
X92203628Y-35275000D01*
X92189147Y-35127974D01*
X92146261Y-34986599D01*
X92076619Y-34856307D01*
X91982895Y-34742105D01*
X91868693Y-34648381D01*
X91738401Y-34578739D01*
X91643663Y-34550000D01*
X99446371Y-34550000D01*
X99460852Y-34697026D01*
X99503738Y-34838401D01*
X99573380Y-34968694D01*
X99667104Y-35082896D01*
X99764101Y-35162500D01*
X99667104Y-35242104D01*
X99573380Y-35356306D01*
X99503738Y-35486599D01*
X99460852Y-35627974D01*
X99446371Y-35775000D01*
X99450000Y-36162500D01*
X99637500Y-36350000D01*
X100550000Y-36350000D01*
X100550000Y-35212500D01*
X100500000Y-35162500D01*
X100550000Y-35112500D01*
X100550000Y-33975000D01*
X99637500Y-33975000D01*
X99450000Y-34162500D01*
X99446371Y-34550000D01*
X91643663Y-34550000D01*
X91597026Y-34535853D01*
X91587843Y-34534949D01*
X91630137Y-34492655D01*
X91664475Y-34464475D01*
X91776943Y-34327432D01*
X91840621Y-34208299D01*
X91860514Y-34171082D01*
X91911977Y-34001431D01*
X91929354Y-33825000D01*
X91925000Y-33780793D01*
X91925000Y-33179931D01*
X92049099Y-33246262D01*
X92190474Y-33289148D01*
X92337500Y-33303629D01*
X92512500Y-33300000D01*
X92700000Y-33112500D01*
X92700000Y-32000000D01*
X93000000Y-32000000D01*
X93000000Y-33112500D01*
X93187500Y-33300000D01*
X93362500Y-33303629D01*
X93509526Y-33289148D01*
X93650901Y-33246262D01*
X93781194Y-33176620D01*
X93874554Y-33100000D01*
X99446371Y-33100000D01*
X99450000Y-33487500D01*
X99637500Y-33675000D01*
X100550000Y-33675000D01*
X100550000Y-32537500D01*
X100362500Y-32350000D01*
X100200000Y-32346371D01*
X100052974Y-32360852D01*
X99911599Y-32403738D01*
X99781306Y-32473380D01*
X99667104Y-32567104D01*
X99573380Y-32681306D01*
X99503738Y-32811599D01*
X99460852Y-32952974D01*
X99446371Y-33100000D01*
X93874554Y-33100000D01*
X93895396Y-33082896D01*
X93989120Y-32968694D01*
X94058762Y-32838401D01*
X94101648Y-32697026D01*
X94116129Y-32550000D01*
X94112500Y-32187500D01*
X93925000Y-32000000D01*
X93000000Y-32000000D01*
X92700000Y-32000000D01*
X92680000Y-32000000D01*
X92680000Y-31700000D01*
X92700000Y-31700000D01*
X92700000Y-31680000D01*
X93000000Y-31680000D01*
X93000000Y-31700000D01*
X93925000Y-31700000D01*
X94112500Y-31512500D01*
X94114878Y-31275000D01*
X101202208Y-31275000D01*
X101700000Y-31772792D01*
G37*
%TD.AperFunction*%
%TD*%
M02*
