M48
; DRILL file {KiCad (5.1.12)-1} date 08/23/22 18:30:38
; FORMAT={-:-/ absolute / metric / decimal}
; #@! TF.CreationDate,2022-08-23T18:30:38+03:00
; #@! TF.GenerationSoftware,Kicad,Pcbnew,(5.1.12)-1
; #@! TF.FileFunction,Plated,1,2,PTH
FMAT,2
METRIC
T1C0.400
T2C1.000
T3C1.320
%
G90
G05
T1
X90.425Y-42.1
X90.575Y-40.375
X91.125Y-50.7
X91.15Y-56.05
X92.8Y-43.825
X99.275Y-36.075
X101.15Y-50.85
X102.575Y-56.5
X104.1Y-46.875
X104.25Y-56.675
X104.55Y-33.8
X104.775Y-38.95
X106.1Y-59.075
X106.1Y-61.25
X107.575Y-45.325
X108.75Y-38.225
X111.3Y-38.25
X111.55Y-42.7
X115.375Y-51.7
X115.525Y-53.225
X115.55Y-54.55
T2
X108.74Y-35.325
X111.28Y-35.325
X113.82Y-35.325
X116.36Y-35.325
X118.9Y-35.325
T3
X82.35Y-48.6
X82.35Y-53.6
X82.35Y-58.6
T0
M30
